<?xml version="1.0" encoding="utf-8"?>
<!-- Generator: Adobe Illustrator 17.0.0, SVG Export Plug-In . SVG Version: 6.00 Build 0)  -->
<!DOCTYPE svg PUBLIC "-//W3C//DTD SVG 1.1//EN" "http://www.w3.org/Graphics/SVG/1.1/DTD/svg11.dtd">
<svg version="1.1" id="图层_2" xmlns="http://www.w3.org/2000/svg" xmlns:xlink="http://www.w3.org/1999/xlink" x="0px" y="0px"
	 width="588px" height="266px" viewBox="-243.3 -162.3 588 266" enable-background="new -243.3 -162.3 588 266"
	 xml:space="preserve">
<path fill="#4E4E52" d="M24.229,84.752c-10.007,0-18.12-8.113-18.12-18.12s8.113-18.12,18.12-18.12s18.12,8.113,18.12,18.12
	C42.349,76.639,34.236,84.752,24.229,84.752L24.229,84.752z M24.229,49.396c-9.517,0-17.231,7.717-17.231,17.236
	s7.714,17.236,17.231,17.236c9.516,0,17.231-7.717,17.231-17.236C41.46,57.113,33.745,49.396,24.229,49.396L24.229,49.396z"/>
<path fill="#4E4E52" d="M24.144,50.672c8.767,0,15.874,7.145,15.874,15.96s-7.107,15.96-15.874,15.96
	c-8.768,0-15.875-7.145-15.875-15.96S15.376,50.672,24.144,50.672L24.144,50.672z"/>
<path fill="#FFFFFF" d="M20.851,67.712c-0.579,0-1.098-0.102-1.544-0.302c-1.373-0.617-1.761-1.181-1.846-1.545
	c-0.072-0.307,0.036-0.631,0.33-0.988c0.243-0.295,1.503-1.766,2.465-1.782c0.541,0.013,0.75,0.218,1.014,0.478
	c0.172,0.169,0.365,0.36,0.64,0.474c0.231,0.095,0.492,0.183,0.843,0.183h0.033c1.763-0.028,3.805-2.072,3.833-3.836
	c0.006-0.366-0.084-0.638-0.183-0.877c-0.114-0.275-0.304-0.469-0.472-0.639c-0.261-0.266-0.466-0.474-0.479-1.003
	c0.016-0.976,1.486-2.236,1.781-2.479c0.364-0.3,0.679-0.403,0.989-0.33c0.364,0.085,0.928,0.475,1.543,1.847
	c0.21,0.467,0.311,1.013,0.301,1.625c-0.078,4.895-4.276,9.096-9.168,9.175L20.851,67.712L20.851,67.712z"/>
<path fill="#FFFFFF" d="M18.379,74.818c-0.075,0.062-0.144,0.144-0.207,0.244c-0.527-0.424-0.903-0.974-1.131-1.647
	c-0.024,0.178-0.053,0.323-0.088,0.428c-0.187,0.5-0.55,0.925-1.087,1.275c-0.037-0.088-0.088-0.163-0.15-0.225
	c0.513-0.325,0.844-0.706,0.994-1.144c0.057-0.13,0.1-0.346,0.131-0.637h-1.012v-0.244h1.033c0.02-0.276,0.031-0.607,0.034-0.994
	H15.96V71.63h1.186c0.191-0.289,0.377-0.588,0.557-0.9l0.225,0.169c-0.165,0.258-0.324,0.499-0.481,0.731h0.799v0.244H17.12
	c-0.002,0.381-0.011,0.712-0.029,0.994h1.286v0.244h-1.201C17.369,73.813,17.767,74.383,18.379,74.818L18.379,74.818z M16.185,70.9
	l0.187-0.15c0.162,0.2,0.306,0.394,0.431,0.581L16.597,71.5C16.472,71.312,16.335,71.112,16.185,70.9L16.185,70.9z M15.604,73.907
	c0.118-0.022,0.24-0.042,0.356-0.064c-0.013,0.062-0.019,0.144-0.019,0.243c-0.11,0.018-0.225,0.041-0.337,0.061v0.952H15.36v-0.907
	c-0.433,0.08-0.874,0.167-1.331,0.27l-0.094-0.281c0.108-0.015,0.212-0.033,0.319-0.049v-2.857h-0.263V71.05h1.95v0.225h-0.337
	V73.907L15.604,73.907z M14.516,73.018h0.844v-0.787h-0.844V73.018L14.516,73.018z M15.36,73.951v-0.727h-0.844v0.867
	C14.802,74.047,15.083,74,15.36,73.951L15.36,73.951z M14.516,72.024h0.844v-0.75h-0.844V72.024L14.516,72.024z M22.272,72.662
	c0.375,0.287,0.738,0.581,1.087,0.881l-0.225,0.243c-0.119-0.114-0.239-0.22-0.359-0.328c-0.444,0.017-0.882,0.036-1.31,0.058v1.02
	c0,0.337-0.175,0.506-0.525,0.506c-0.137,0-0.294,0-0.469,0c-0.013-0.088-0.031-0.175-0.057-0.262
	c0.15,0.012,0.319,0.018,0.506,0.018c0.175,0,0.263-0.081,0.263-0.244v-1.022c-0.38,0.021-0.759,0.042-1.125,0.066
	c-0.163,0.013-0.325,0.031-0.487,0.056l-0.15-0.356c0.187-0.038,0.368-0.094,0.544-0.169c0.482-0.235,0.928-0.475,1.344-0.718
	c-0.566,0.036-1.029,0.07-1.382,0.1c-0.15,0.013-0.262,0.025-0.337,0.037l-0.15-0.337c0.137-0.038,0.269-0.087,0.394-0.15
	c0.403-0.231,0.793-0.494,1.171-0.785c-0.536,0.017-1.074,0.03-1.621,0.035c0-0.087-0.013-0.175-0.038-0.262
	c1.262,0,2.531-0.044,3.806-0.131l0.037,0.262c-0.697,0.042-1.406,0.072-2.123,0.095l0.249,0.149c-0.45,0.3-0.937,0.581-1.463,0.844
	c0.778-0.043,1.397-0.077,1.858-0.102c0.312-0.195,0.61-0.392,0.88-0.592l0.225,0.187c-0.75,0.538-1.675,1.069-2.775,1.594
	c0.708-0.033,1.542-0.072,2.486-0.115c-0.153-0.129-0.306-0.255-0.461-0.373L22.272,72.662L22.272,72.662z M20.359,74.106
	c-0.337,0.287-0.7,0.569-1.087,0.844c-0.075-0.1-0.144-0.187-0.206-0.262c0.375-0.212,0.731-0.481,1.069-0.806L20.359,74.106
	L20.359,74.106z M23.415,74.687l-0.168,0.244c-0.4-0.287-0.825-0.575-1.275-0.863l0.169-0.206
	C22.603,74.15,23.028,74.425,23.415,74.687L23.415,74.687z M26.989,72.381c0.006,0.081,0.013,0.165,0.02,0.243
	c0.051,0.377,0.119,0.701,0.201,0.981c0.387-0.27,0.735-0.57,1.036-0.906l0.168,0.263c-0.344,0.35-0.714,0.661-1.105,0.941
	c0.145,0.375,0.324,0.639,0.542,0.784c0.175,0.087,0.275,0.025,0.3-0.187c0.038-0.238,0.075-0.519,0.113-0.844
	c0.087,0.05,0.181,0.088,0.281,0.113c-0.05,0.35-0.094,0.631-0.132,0.844c-0.075,0.312-0.212,0.469-0.412,0.469
	c-0.125,0-0.244-0.05-0.356-0.15c-0.233-0.168-0.425-0.459-0.578-0.865c-0.376,0.249-0.768,0.472-1.185,0.659
	c-0.037-0.124-0.081-0.237-0.131-0.337c0.444-0.179,0.844-0.391,1.215-0.626c-0.093-0.322-0.167-0.699-0.221-1.137
	c-0.006-0.074-0.012-0.16-0.018-0.243h-1.276v0.779c0.315-0.075,0.629-0.152,0.937-0.236c-0.013,0.113-0.019,0.231-0.019,0.356
	c-0.317,0.071-0.622,0.14-0.919,0.208v0.879c0,0.438-0.169,0.656-0.506,0.656c-0.175,0-0.363,0-0.562,0
	c-0.025-0.137-0.05-0.262-0.075-0.375c0.237,0.025,0.45,0.038,0.637,0.038c0.162,0,0.244-0.112,0.244-0.337v-0.8
	c-0.345,0.081-0.677,0.16-0.994,0.237l-0.075-0.337c0.361-0.07,0.716-0.146,1.069-0.227v-0.842h-1.029v-0.3h1.031v-0.713
	c-0.287,0.034-0.57,0.065-0.844,0.094c-0.013-0.1-0.037-0.206-0.075-0.318c0.65-0.05,1.281-0.119,1.894-0.207l0.075,0.3
	c-0.269,0.035-0.529,0.068-0.787,0.099v0.745h1.256c-0.022-0.358-0.04-0.778-0.056-1.275h0.262c0.008,0.452,0.026,0.876,0.052,1.275
	h1.654v0.3L26.989,72.381L26.989,72.381z M27.402,71.05l0.188-0.188c0.25,0.238,0.475,0.469,0.675,0.694L28.058,71.8
	C27.859,71.55,27.64,71.3,27.402,71.05L27.402,71.05z M32.833,75.006c-0.2,0-0.4-0.007-0.6-0.019c-0.025-0.1-0.05-0.188-0.075-0.263
	c0.237,0.025,0.456,0.038,0.656,0.038c0.25,0,0.375-0.119,0.375-0.356v-3.094H31.97V71.05h1.219h0.131h0.15v3.337
	C33.471,74.799,33.258,75.006,32.833,75.006L32.833,75.006z M30.94,70.956l0.187-0.187c0.175,0.15,0.368,0.318,0.581,0.506
	l-0.206,0.206C31.339,71.319,31.152,71.143,30.94,70.956L30.94,70.956z M31.165,75.043h-0.282v-3.394h0.282V75.043L31.165,75.043z
	 M30.115,72.193v2.888H29.89v-2.779c-0.166,0.329-0.34,0.629-0.525,0.885c-0.037-0.1-0.075-0.188-0.112-0.263
	c0.437-0.637,0.769-1.362,0.994-2.175l0.244,0.094c-0.167,0.502-0.348,0.951-0.542,1.35H30.115L30.115,72.193z"/>
<path fill="#3A7EBD" d="M63.429,85.252c-10.007,0-18.12-8.113-18.12-18.12s8.113-18.12,18.12-18.12s18.12,8.113,18.12,18.12
	C81.549,77.139,73.436,85.252,63.429,85.252L63.429,85.252z M63.429,49.896c-9.517,0-17.231,7.717-17.231,17.236
	s7.714,17.236,17.231,17.236c9.516,0,17.231-7.717,17.231-17.236C80.66,57.613,72.945,49.896,63.429,49.896L63.429,49.896z"/>
<path fill="#3A7EBD" d="M63.344,51.172c8.767,0,15.874,7.145,15.874,15.96s-7.107,15.96-15.874,15.96
	c-8.768,0-15.875-7.145-15.875-15.96S54.576,51.172,63.344,51.172L63.344,51.172z"/>
<path fill="#FFFFFF" d="M60.051,68.212c-0.579,0-1.098-0.102-1.544-0.302c-1.373-0.617-1.761-1.181-1.846-1.545
	c-0.072-0.307,0.036-0.631,0.33-0.988c0.243-0.295,1.503-1.766,2.465-1.782c0.541,0.013,0.75,0.218,1.014,0.478
	c0.172,0.169,0.365,0.36,0.64,0.474c0.231,0.095,0.492,0.183,0.843,0.183h0.033c1.763-0.028,3.805-2.072,3.833-3.836
	c0.006-0.366-0.084-0.638-0.183-0.877c-0.114-0.275-0.304-0.469-0.472-0.639c-0.261-0.266-0.466-0.474-0.479-1.003
	c0.016-0.976,1.486-2.236,1.781-2.479c0.364-0.3,0.679-0.403,0.989-0.33c0.364,0.085,0.928,0.475,1.543,1.847
	c0.21,0.467,0.311,1.013,0.301,1.625c-0.078,4.895-4.276,9.096-9.168,9.175L60.051,68.212L60.051,68.212z"/>
<path fill="#FFFFFF" d="M57.579,75.318c-0.075,0.062-0.144,0.144-0.207,0.244c-0.527-0.424-0.903-0.974-1.131-1.647
	c-0.024,0.178-0.053,0.323-0.088,0.428c-0.187,0.5-0.55,0.925-1.087,1.275c-0.037-0.088-0.088-0.163-0.15-0.225
	c0.513-0.325,0.844-0.706,0.994-1.144c0.057-0.13,0.1-0.346,0.131-0.637h-1.012v-0.244h1.033c0.02-0.276,0.031-0.607,0.034-0.994
	H55.16V72.13h1.186c0.191-0.289,0.377-0.588,0.557-0.9l0.225,0.169c-0.165,0.258-0.324,0.499-0.481,0.731h0.799v0.244H56.32
	c-0.002,0.381-0.011,0.712-0.029,0.994h1.286v0.244h-1.201C56.569,74.313,56.967,74.883,57.579,75.318L57.579,75.318z M55.385,71.4
	l0.187-0.15c0.162,0.2,0.306,0.394,0.431,0.581L55.797,72C55.672,71.812,55.535,71.612,55.385,71.4L55.385,71.4z M54.804,74.407
	c0.118-0.022,0.24-0.042,0.356-0.064c-0.013,0.062-0.019,0.144-0.019,0.243c-0.11,0.018-0.225,0.041-0.337,0.061v0.952H54.56v-0.907
	c-0.433,0.08-0.874,0.167-1.331,0.27l-0.094-0.281c0.108-0.015,0.212-0.033,0.319-0.049v-2.857h-0.263V71.55h1.95v0.225h-0.337
	V74.407L54.804,74.407z M53.716,73.518h0.844v-0.787h-0.844V73.518L53.716,73.518z M54.56,74.451v-0.727h-0.844v0.867
	C54.002,74.547,54.283,74.5,54.56,74.451L54.56,74.451z M53.716,72.524h0.844v-0.75h-0.844V72.524L53.716,72.524z M61.472,73.162
	c0.375,0.287,0.738,0.581,1.087,0.881l-0.225,0.243c-0.119-0.114-0.239-0.22-0.359-0.328c-0.444,0.017-0.882,0.036-1.31,0.058v1.02
	c0,0.337-0.175,0.506-0.525,0.506c-0.137,0-0.294,0-0.469,0c-0.013-0.088-0.031-0.175-0.057-0.262
	c0.15,0.012,0.319,0.018,0.506,0.018c0.175,0,0.263-0.081,0.263-0.244v-1.022c-0.38,0.021-0.759,0.042-1.125,0.066
	c-0.163,0.013-0.325,0.031-0.487,0.056l-0.15-0.356c0.187-0.038,0.368-0.094,0.544-0.169c0.482-0.235,0.928-0.475,1.344-0.718
	c-0.566,0.036-1.029,0.07-1.382,0.1c-0.15,0.013-0.262,0.025-0.337,0.037l-0.15-0.337c0.137-0.038,0.269-0.087,0.394-0.15
	c0.403-0.231,0.793-0.494,1.171-0.785c-0.536,0.017-1.074,0.03-1.621,0.035c0-0.087-0.013-0.175-0.038-0.262
	c1.262,0,2.531-0.044,3.806-0.131l0.037,0.262c-0.697,0.042-1.406,0.072-2.123,0.095l0.249,0.149c-0.45,0.3-0.937,0.581-1.463,0.844
	c0.778-0.043,1.397-0.077,1.858-0.102c0.312-0.195,0.61-0.392,0.88-0.592l0.225,0.187c-0.75,0.538-1.675,1.069-2.775,1.594
	c0.708-0.033,1.542-0.072,2.486-0.115c-0.153-0.129-0.306-0.255-0.461-0.373L61.472,73.162L61.472,73.162z M59.559,74.606
	c-0.337,0.287-0.7,0.569-1.087,0.844c-0.075-0.1-0.144-0.187-0.206-0.262c0.375-0.212,0.731-0.481,1.069-0.806L59.559,74.606
	L59.559,74.606z M62.615,75.187l-0.168,0.244c-0.4-0.287-0.825-0.575-1.275-0.863l0.169-0.206
	C61.803,74.65,62.228,74.925,62.615,75.187L62.615,75.187z M66.189,72.881c0.006,0.081,0.013,0.165,0.02,0.243
	c0.051,0.377,0.119,0.701,0.201,0.981c0.387-0.27,0.735-0.57,1.036-0.906l0.168,0.263c-0.344,0.35-0.714,0.661-1.105,0.941
	c0.145,0.375,0.324,0.639,0.542,0.784c0.175,0.087,0.275,0.025,0.3-0.187c0.038-0.238,0.075-0.519,0.113-0.844
	c0.087,0.05,0.181,0.088,0.281,0.113c-0.05,0.35-0.094,0.631-0.132,0.844c-0.075,0.312-0.212,0.469-0.412,0.469
	c-0.125,0-0.244-0.05-0.356-0.15c-0.233-0.168-0.425-0.459-0.578-0.865c-0.376,0.249-0.768,0.472-1.185,0.659
	c-0.037-0.124-0.081-0.237-0.131-0.337c0.444-0.179,0.844-0.391,1.215-0.626c-0.093-0.322-0.167-0.699-0.221-1.137
	c-0.006-0.074-0.012-0.16-0.018-0.243h-1.276v0.779c0.315-0.075,0.629-0.152,0.937-0.236c-0.013,0.113-0.019,0.231-0.019,0.356
	c-0.317,0.071-0.622,0.14-0.919,0.208v0.879c0,0.438-0.169,0.656-0.506,0.656c-0.175,0-0.363,0-0.562,0
	c-0.025-0.137-0.05-0.262-0.075-0.375c0.237,0.025,0.45,0.038,0.637,0.038c0.162,0,0.244-0.112,0.244-0.337v-0.8
	c-0.345,0.081-0.677,0.16-0.994,0.237l-0.075-0.337c0.361-0.07,0.716-0.146,1.069-0.227v-0.842h-1.029v-0.3h1.031v-0.713
	c-0.287,0.034-0.57,0.065-0.844,0.094c-0.013-0.1-0.037-0.206-0.075-0.318c0.65-0.05,1.281-0.119,1.894-0.207l0.075,0.3
	c-0.269,0.035-0.529,0.068-0.787,0.099v0.745h1.256c-0.022-0.358-0.04-0.778-0.056-1.275h0.262c0.008,0.452,0.026,0.876,0.052,1.275
	h1.654v0.3L66.189,72.881L66.189,72.881z M66.602,71.55l0.188-0.188c0.25,0.238,0.475,0.469,0.675,0.694L67.258,72.3
	C67.059,72.05,66.84,71.8,66.602,71.55L66.602,71.55z M72.033,75.506c-0.2,0-0.4-0.007-0.6-0.019c-0.025-0.1-0.05-0.188-0.075-0.263
	c0.237,0.025,0.456,0.038,0.656,0.038c0.25,0,0.375-0.119,0.375-0.356v-3.094H71.17V71.55h1.219h0.131h0.15v3.337
	C72.671,75.299,72.458,75.506,72.033,75.506L72.033,75.506z M70.14,71.456l0.187-0.187c0.175,0.15,0.368,0.318,0.581,0.506
	l-0.206,0.206C70.539,71.819,70.352,71.643,70.14,71.456L70.14,71.456z M70.365,75.543h-0.282v-3.394h0.282V75.543L70.365,75.543z
	 M69.315,72.693v2.888H69.09v-2.779c-0.166,0.329-0.34,0.629-0.525,0.885c-0.037-0.1-0.075-0.188-0.112-0.263
	c0.437-0.637,0.769-1.362,0.994-2.175l0.244,0.094c-0.167,0.502-0.348,0.951-0.542,1.35H69.315L69.315,72.693z"/>
<path fill="#4E4E52" d="M22.584-29.268c8.768,0,15.875,7.145,15.875,15.96s-7.107,15.96-15.875,15.96
	c-8.767,0-15.875-7.145-15.875-15.96C6.709-22.123,13.816-29.268,22.584-29.268L22.584-29.268z"/>
<path fill="#4E4E52" d="M22.549,4.812c-10.007,0-18.12-8.113-18.12-18.12s8.113-18.12,18.12-18.12s18.12,8.113,18.12,18.12
	C40.669-3.301,32.556,4.812,22.549,4.812L22.549,4.812z M22.549-30.544c-9.517,0-17.231,7.717-17.231,17.236
	S13.032,3.928,22.549,3.928c9.516,0,17.231-7.717,17.231-17.236C39.78-22.827,32.065-30.544,22.549-30.544L22.549-30.544z"/>
<path fill="#FFFFFF" d="M19.823-20.618h-2.381c-0.029,0-0.053-0.024-0.053-0.054v-0.663c0-0.029,0.024-0.054,0.053-0.054h2.381
	c0.029,0,0.053,0.024,0.053,0.054v0.663C19.877-20.642,19.853-20.618,19.823-20.618L19.823-20.618z M19.823-17.483h-2.381
	c-0.029,0-0.053-0.024-0.053-0.054V-18.2c0-0.029,0.024-0.054,0.053-0.054h2.381c0.029,0,0.053,0.024,0.053,0.054v0.663
	C19.877-17.507,19.853-17.483,19.823-17.483L19.823-17.483z M19.823-14.348h-2.381c-0.029,0-0.053-0.024-0.053-0.054v-0.662
	c0-0.03,0.024-0.054,0.053-0.054h2.381c0.029,0,0.053,0.024,0.053,0.054v0.662C19.877-14.372,19.853-14.348,19.823-14.348
	L19.823-14.348z M27.225-12.708h-8.798c-0.135,0-0.245-0.111-0.245-0.247V-14.1h1.641c0.164,0,0.298-0.135,0.298-0.302v-0.662
	c0-0.167-0.134-0.302-0.298-0.302h-1.641v-1.869h1.641c0.164,0,0.298-0.135,0.298-0.301v-0.663c0-0.166-0.134-0.301-0.298-0.301
	h-1.641v-1.87h1.641c0.164,0,0.298-0.135,0.298-0.301v-0.663c0-0.166-0.134-0.301-0.298-0.301h-1.641v-1.145
	c0-0.137,0.109-0.248,0.245-0.248h8.798c0.135,0,0.244,0.111,0.244,0.248v9.825C27.469-12.819,27.36-12.708,27.225-12.708
	L27.225-12.708z"/>
<path fill="#FFFFFF" d="M16.78-6.839c-0.11,0.319-0.296,0.593-0.557,0.822c0.362,0.154,0.73,0.311,1.102,0.471l-0.131,0.244
	c-0.386-0.187-0.78-0.37-1.18-0.55c-0.376,0.26-0.868,0.452-1.483,0.569c-0.037-0.075-0.075-0.157-0.112-0.244
	c0.544-0.084,0.984-0.233,1.331-0.44c-0.291-0.129-0.583-0.259-0.881-0.385c0.115-0.158,0.223-0.322,0.327-0.487h-0.703v-0.225
	h0.839c0.085-0.142,0.17-0.284,0.249-0.431l0.206,0.112c-0.065,0.112-0.128,0.217-0.19,0.319H17.4v0.225L16.78-6.839L16.78-6.839z
	 M15.206-6.445c0.253,0.106,0.512,0.215,0.77,0.324c0.252-0.197,0.436-0.436,0.551-0.718h-1.068
	C15.371-6.698,15.286-6.566,15.206-6.445L15.206-6.445z M17.381-7.608c-0.075,0.088-0.137,0.157-0.187,0.207
	c-0.46-0.212-0.84-0.552-1.144-1.009v0.934h-0.244v-0.95c-0.314,0.466-0.687,0.836-1.125,1.1c-0.05-0.075-0.106-0.144-0.168-0.207
	c0.433-0.222,0.782-0.538,1.058-0.937h-0.983v-0.225h1.219v-0.994h0.244v0.994h1.275v0.225h-1.044
	C16.585-8.042,16.951-7.751,17.381-7.608L17.381-7.608z M16.425-8.977c0.162-0.175,0.325-0.362,0.487-0.562l0.206,0.15
	c-0.163,0.187-0.344,0.381-0.544,0.581L16.425-8.977L16.425-8.977z M14.794-9.389L15-9.539c0.137,0.175,0.281,0.362,0.431,0.562
	l-0.206,0.15C15.087-9.027,14.944-9.214,14.794-9.389L14.794-9.389z M13.987-7.927c0.125,0.137,0.281,0.306,0.469,0.506l-0.168,0.15
	c-0.148-0.183-0.285-0.348-0.413-0.499v2.468h-0.262V-7.8c-0.157,0.469-0.342,0.893-0.562,1.261
	c-0.025-0.113-0.056-0.231-0.094-0.356c0.289-0.501,0.505-1.029,0.656-1.58v-0.033h-0.582v-0.244h0.581v-0.937h0.262v0.937h0.507
	v0.244h-0.507v0.666L13.987-7.927L13.987-7.927z M18.143-5.471v-0.244h0.506v-1.181h0.131h0.112h2.832h0.15h0.093v1.181h0.506v0.244
	H18.143L18.143-5.471z M20.712-5.714V-6.67h-0.787v0.956H20.712L20.712-5.714z M18.893-5.714h0.788V-6.67h-0.788V-5.714
	L18.893-5.714z M21.724-6.67h-0.788v0.956h0.788V-6.67L21.724-6.67z M20.487-7.195c-0.25-0.162-0.494-0.306-0.731-0.431l0.131-0.188
	c0.237,0.125,0.481,0.263,0.731,0.413L20.487-7.195L20.487-7.195z M21.856-7.627c0,0.325-0.157,0.487-0.469,0.487
	c-0.163,0-0.331,0-0.506,0c-0.013-0.087-0.025-0.175-0.037-0.262c0.162,0.013,0.325,0.018,0.487,0.018c0.175,0,0.262-0.1,0.262-0.3
	v-0.318h-2.439c-0.082,0.418-0.293,0.774-0.635,1.069c-0.013-0.012-0.069-0.081-0.169-0.206c0.187-0.15,0.331-0.337,0.431-0.562
	c0.042-0.091,0.071-0.193,0.096-0.3h-0.733v-0.225h0.765c0.009-0.08,0.022-0.156,0.022-0.244v-0.581v-0.093v-0.114h0.99
	c0.07-0.15,0.13-0.3,0.173-0.45l0.281,0.075c-0.065,0.13-0.13,0.252-0.194,0.375h1.676v0.131v0.075v0.825h0.619v0.225h-0.619
	L21.856-7.627L21.856-7.627z M21.593-9.052h-2.4v0.637c0,0.064-0.004,0.126-0.009,0.188h2.409V-9.052L21.593-9.052z M20.73-8.527
	L20.599-8.34c-0.25-0.15-0.494-0.293-0.731-0.431l0.131-0.168C20.237-8.814,20.48-8.677,20.73-8.527L20.73-8.527z M27.624-8.846
	h-3.112v-0.225h1.519h1.594v0.225H27.624z M25.974-9.708c0.125,0.188,0.237,0.363,0.337,0.525L26.03-9.071
	c-0.088-0.162-0.194-0.331-0.318-0.506L25.974-9.708L25.974-9.708z M24.08-8.208v2.906h-0.244v-2.79
	c-0.167,0.33-0.342,0.624-0.525,0.877c-0.038-0.1-0.082-0.194-0.132-0.281c0.45-0.637,0.794-1.362,1.031-2.175l0.244,0.075
	c-0.175,0.518-0.362,0.98-0.56,1.387L24.08-8.208L24.08-8.208z M27.361-8.114h-2.606v-0.225h2.606V-8.114L27.361-8.114z
	 M27.361-7.383h-2.606v-0.225h2.606V-7.383L27.361-7.383z M25.074-6.877h1.969h0.15h0.132v1.556h-0.282v-0.281h-1.969v0.281h-0.281
	v-1.556h0.15H25.074L25.074-6.877z M27.042-5.808v-0.844h-1.969v0.844H27.042L27.042-5.808z M31.873-6.952h-2.7h-0.075h-0.187
	v-2.287h0.15h0.112h0.829c0.052-0.152,0.103-0.307,0.146-0.469l0.243,0.075c-0.042,0.126-0.084,0.259-0.126,0.394h1.607h0.094h0.15
	v2.287h-0.169H31.873L31.873-6.952z M31.873-8.321h-2.7v0.431h2.7V-8.321L31.873-8.321z M31.873-7.214v-0.431h-2.7v0.431H31.873
	L31.873-7.214z M29.173-8.996v0.432h2.7v-0.432H29.173L29.173-8.996z M28.536-5.602c-0.075-0.05-0.15-0.094-0.225-0.131
	c0.2-0.275,0.337-0.537,0.412-0.787l0.244,0.075C28.842-6.12,28.698-5.839,28.536-5.602L28.536-5.602z M30.373-6.802
	c0.175,0.15,0.387,0.331,0.637,0.544l-0.225,0.15c-0.238-0.225-0.444-0.412-0.619-0.562L30.373-6.802L30.373-6.802z M29.755-5.864
	c0,0.15,0.1,0.225,0.3,0.225h1.012c0.212,0,0.337-0.069,0.375-0.206c0.025-0.087,0.044-0.194,0.056-0.319
	c0.087,0.037,0.175,0.069,0.263,0.093c-0.026,0.138-0.05,0.25-0.075,0.338c-0.075,0.212-0.269,0.318-0.581,0.318h-1.106
	c-0.35,0-0.525-0.144-0.525-0.431v-0.675h0.281L29.755-5.864L29.755-5.864z M32.811-5.864l-0.262,0.15
	c-0.213-0.262-0.438-0.512-0.675-0.75l0.225-0.131C32.348-6.358,32.586-6.114,32.811-5.864L32.811-5.864z"/>
<path fill="#4E4E52" d="M24.459,11.292c8.767,0,15.874,7.145,15.874,15.96c0,8.814-7.107,15.96-15.874,15.96
	c-8.768,0-15.875-7.145-15.875-15.96C8.584,18.437,15.691,11.292,24.459,11.292L24.459,11.292z"/>
<path fill="#4E4E52" d="M24.544,45.372c-10.007,0-18.12-8.113-18.12-18.12s8.113-18.12,18.12-18.12s18.12,8.113,18.12,18.12
	S34.551,45.372,24.544,45.372L24.544,45.372z M24.544,10.016c-9.517,0-17.231,7.717-17.231,17.236s7.714,17.236,17.231,17.236
	c9.516,0,17.231-7.717,17.231-17.236S34.06,10.016,24.544,10.016L24.544,10.016z"/>
<path fill="#FFFFFF" d="M25.144,26.652c-3.419,0-6.422-1.721-8.16-4.32c1.737-2.599,4.74-4.32,8.16-4.32s6.423,1.721,8.16,4.32
	C31.567,24.931,28.564,26.652,25.144,26.652L25.144,26.652z M25.144,18.718c-2.048,0-3.708,1.618-3.708,3.614
	s1.66,3.614,3.708,3.614s3.708-1.618,3.708-3.614S27.192,18.718,25.144,18.718L25.144,18.718z M27.717,22.618
	c-0.163,0-0.294-0.128-0.294-0.286c0-1.225-1.022-2.222-2.279-2.222c-0.163,0-0.294-0.128-0.294-0.287
	c0-0.158,0.132-0.287,0.294-0.287c1.581,0,2.867,1.254,2.867,2.795C28.011,22.49,27.88,22.618,27.717,22.618L27.717,22.618z"/>
<path fill="#FFFFFF" d="M19.556,31.512h0.075h0.206l-0.075,0.619c-0.1,0-0.194,0-0.281,0l0.046-0.375h-3.346v1.256
	c0,0.888-0.175,1.544-0.525,1.969c-0.062-0.062-0.137-0.131-0.225-0.206c0.312-0.425,0.469-1,0.469-1.725v-1.538h0.169h0.112h1.275
	v-0.9h0.262v0.319h1.856v0.225h-1.856v0.356L19.556,31.512L19.556,31.512z M18.975,34.249l-0.188-0.187
	c0.188-0.2,0.369-0.425,0.544-0.675l0.206,0.188C19.375,33.8,19.187,34.024,18.975,34.249L18.975,34.249z M16.875,34.287
	c-0.15-0.237-0.306-0.475-0.469-0.712l0.225-0.15c0.187,0.25,0.344,0.481,0.469,0.694L16.875,34.287L16.875,34.287z M17.944,32.768
	h0.937c0.2,0,0.319-0.069,0.356-0.207c0.012-0.1,0.025-0.212,0.038-0.337c0.087,0.038,0.175,0.069,0.262,0.094
	c-0.025,0.15-0.05,0.269-0.075,0.356c-0.075,0.213-0.256,0.319-0.544,0.319h-1.012c-0.325,0-0.487-0.144-0.487-0.432v-0.127
	l-1.012,0.108l-0.019-0.225l1.031-0.119v-0.35h0.262v0.32l1.312-0.151l0.038,0.244l-1.35,0.145v0.118
	C17.681,32.687,17.768,32.768,17.944,32.768L17.944,32.768z M17.344,33.293h0.281v1.312h0.637v-1.312h0.282v1.312h1.275v0.263
	h-3.656v-0.263h1.181L17.344,33.293L17.344,33.293z M24.15,33.724c0.305,0.342,0.592,0.674,0.855,0.994l-0.225,0.225
	c-0.24-0.333-0.495-0.644-0.76-0.943c-0.229,0.397-0.564,0.732-1.021,0.999c-0.05-0.088-0.106-0.181-0.168-0.281
	c0.475-0.275,0.812-0.6,1.012-0.975c0.162-0.349,0.243-0.844,0.243-1.481c0.013-0.4,0.019-0.912,0.019-1.538h0.281
	c0,0.65-0.006,1.156-0.018,1.519C24.356,32.86,24.281,33.348,24.15,33.724L24.15,33.724z M22.812,30.743l0.206-0.131
	c0.225,0.313,0.431,0.644,0.619,0.994l-0.244,0.15C23.218,31.406,23.024,31.068,22.812,30.743L22.812,30.743z M23.243,33.687
	c-0.525,0.325-0.831,0.55-0.919,0.675l-0.207-0.225c0.088-0.1,0.132-0.231,0.132-0.394v-2.737h0.262v2.831
	c0.25-0.137,0.487-0.287,0.712-0.45C23.224,33.475,23.231,33.575,23.243,33.687L23.243,33.687z M21.949,32.6
	c0,0.075,0.006,0.156,0.018,0.244c-0.172,0.054-0.339,0.109-0.506,0.163v1.525c0,0.212-0.112,0.337-0.337,0.375
	c-0.088,0.025-0.256,0.038-0.506,0.038c-0.013-0.088-0.031-0.181-0.056-0.281c0.175,0.012,0.312,0.018,0.412,0.018
	c0.137,0,0.206-0.069,0.206-0.206V33.1c-0.197,0.065-0.392,0.13-0.581,0.195l-0.037-0.281c0.206-0.055,0.412-0.115,0.619-0.176
	v-1.08h-0.6v-0.225h0.6V30.67h0.281v0.863h0.506v0.225h-0.506v0.995C21.624,32.701,21.787,32.652,21.949,32.6L21.949,32.6z
	 M30.08,32.168v0.225h-2.779c-0.09,0.143-0.186,0.28-0.29,0.412h2.301h0.094h0.131v2.194h-0.225v-0.187h-2.4v0.187h-0.225v-1.817
	c-0.265,0.279-0.562,0.537-0.9,0.767c-0.038-0.075-0.088-0.156-0.15-0.243c0.562-0.363,1.014-0.802,1.362-1.312h-1.25v-0.225h1.395
	c0.083-0.139,0.161-0.282,0.229-0.431h-1.324v-0.226h1.416c0.061-0.152,0.114-0.309,0.161-0.471
	c-0.532,0.015-1.064,0.029-1.596,0.04c-0.013-0.075-0.031-0.15-0.056-0.225c1.475-0.025,2.719-0.069,3.731-0.131l0.038,0.243
	c-0.613,0.025-1.225,0.046-1.838,0.065c-0.047,0.164-0.101,0.324-0.161,0.479h2.018v0.225h-2.11
	c-0.065,0.148-0.137,0.292-0.214,0.431H30.08L30.08,32.168z M26.911,33.05v0.356h2.4V33.05H26.911L26.911,33.05z M29.311,33.631
	h-2.4v0.356h2.4V33.631L29.311,33.631z M29.311,34.587v-0.375h-2.4v0.375H29.311L29.311,34.587z M32.846,32.937
	c-0.002,0.183-0.012,0.352-0.03,0.506h1.607h0.15h0.131c-0.013,0.4-0.025,0.7-0.037,0.9c-0.038,0.375-0.25,0.562-0.637,0.562
	c-0.113,0-0.307,0-0.581,0c-0.013-0.112-0.038-0.206-0.075-0.281c0.3,0.013,0.518,0.019,0.656,0.019
	c0.212,0,0.331-0.131,0.356-0.394c0.009-0.107,0.019-0.296,0.029-0.562h-1.636c-0.022,0.115-0.048,0.224-0.081,0.319
	c-0.125,0.388-0.413,0.725-0.862,1.012c-0.038-0.063-0.101-0.15-0.188-0.263c0.387-0.225,0.637-0.475,0.75-0.75
	c0.106-0.283,0.16-0.641,0.167-1.069h-0.767v-0.262h1.587c-0.071-0.103-0.148-0.208-0.237-0.319l0.225-0.131
	c0.121,0.166,0.225,0.314,0.318,0.45h1.501v0.262h-2.346V32.937z M34.648,32.149h-3.094v0.544c0,0.975-0.175,1.731-0.525,2.269
	c-0.063-0.088-0.132-0.163-0.207-0.225c0.313-0.488,0.469-1.169,0.469-2.044V31.08h0.113h0.15h1.444
	c-0.06-0.116-0.126-0.238-0.206-0.375l0.243-0.094c0.094,0.156,0.181,0.313,0.266,0.469h1.347h0.15h0.112v1.069h-0.15H34.648
	L34.648,32.149z M31.554,31.324v0.581h3.094v-0.581H31.554L31.554,31.324z"/>
<path fill="#3A7EBD" d="M63.344,11.292c8.767,0,15.874,7.145,15.874,15.96c0,8.814-7.107,15.96-15.874,15.96
	c-8.768,0-15.875-7.145-15.875-15.96S54.576,11.292,63.344,11.292L63.344,11.292z"/>
<path fill="#3A7EBD" d="M63.429,45.372c-10.007,0-18.12-8.113-18.12-18.12s8.113-18.12,18.12-18.12s18.12,8.113,18.12,18.12
	C81.549,37.259,73.436,45.372,63.429,45.372L63.429,45.372z M63.429,10.016c-9.517,0-17.231,7.717-17.231,17.236
	s7.714,17.236,17.231,17.236c9.516,0,17.231-7.717,17.231-17.236C80.66,17.733,72.945,10.016,63.429,10.016L63.429,10.016z"/>
<path fill="#FFFFFF" d="M64.029,26.652c-3.419,0-6.422-1.721-8.16-4.32c1.737-2.599,4.74-4.32,8.16-4.32
	c3.42,0,6.423,1.721,8.16,4.32C70.452,24.931,67.449,26.652,64.029,26.652L64.029,26.652z M64.029,18.718
	c-2.048,0-3.708,1.618-3.708,3.614s1.66,3.614,3.708,3.614c2.048,0,3.708-1.618,3.708-3.614
	C67.737,20.336,66.077,18.718,64.029,18.718L64.029,18.718z M66.602,22.618c-0.163,0-0.294-0.128-0.294-0.286
	c0-1.225-1.022-2.222-2.279-2.222c-0.163,0-0.294-0.128-0.294-0.287c0-0.158,0.132-0.287,0.294-0.287
	c1.581,0,2.867,1.254,2.867,2.795C66.896,22.49,66.765,22.618,66.602,22.618L66.602,22.618z"/>
<path fill="#FFFFFF" d="M58.441,31.512h0.075h0.206l-0.075,0.619c-0.1,0-0.194,0-0.281,0l0.046-0.375h-3.346v1.256
	c0,0.888-0.175,1.544-0.525,1.969c-0.062-0.062-0.137-0.131-0.225-0.206c0.312-0.425,0.469-1,0.469-1.725v-1.538h0.169h0.112h1.275
	v-0.9h0.262v0.319h1.856v0.225h-1.856v0.356H58.441L58.441,31.512z M57.86,34.249l-0.188-0.187c0.188-0.2,0.369-0.425,0.544-0.675
	l0.206,0.188C58.26,33.8,58.072,34.024,57.86,34.249L57.86,34.249z M55.76,34.287c-0.15-0.237-0.306-0.475-0.469-0.712l0.225-0.15
	c0.187,0.25,0.344,0.481,0.469,0.694L55.76,34.287L55.76,34.287z M56.829,32.768h0.937c0.2,0,0.319-0.069,0.356-0.207
	c0.012-0.1,0.025-0.212,0.038-0.337c0.087,0.038,0.175,0.069,0.262,0.094c-0.025,0.15-0.05,0.269-0.075,0.356
	c-0.075,0.213-0.256,0.319-0.544,0.319h-1.012c-0.325,0-0.487-0.144-0.487-0.432v-0.127l-1.012,0.108l-0.019-0.225l1.031-0.119
	v-0.35h0.262v0.32l1.312-0.151l0.038,0.244l-1.35,0.145v0.118C56.566,32.687,56.653,32.768,56.829,32.768L56.829,32.768z
	 M56.229,33.293h0.281v1.312h0.637v-1.312h0.282v1.312h1.275v0.263h-3.656v-0.263h1.181V33.293L56.229,33.293z M63.035,33.724
	c0.305,0.342,0.592,0.674,0.855,0.994l-0.225,0.225c-0.24-0.333-0.495-0.644-0.76-0.943c-0.229,0.397-0.564,0.732-1.021,0.999
	c-0.05-0.088-0.106-0.181-0.168-0.281c0.475-0.275,0.812-0.6,1.012-0.975c0.162-0.349,0.243-0.844,0.243-1.481
	c0.013-0.4,0.019-0.912,0.019-1.538h0.281c0,0.65-0.006,1.156-0.018,1.519C63.241,32.86,63.166,33.348,63.035,33.724L63.035,33.724z
	 M61.697,30.743l0.206-0.131c0.225,0.313,0.431,0.644,0.619,0.994l-0.244,0.15C62.103,31.406,61.909,31.068,61.697,30.743
	L61.697,30.743z M62.128,33.687c-0.525,0.325-0.831,0.55-0.919,0.675l-0.207-0.225c0.088-0.1,0.132-0.231,0.132-0.394v-2.737h0.262
	v2.831c0.25-0.137,0.487-0.287,0.712-0.45C62.109,33.475,62.116,33.575,62.128,33.687L62.128,33.687z M60.834,32.6
	c0,0.075,0.006,0.156,0.018,0.244c-0.172,0.054-0.339,0.109-0.506,0.163v1.525c0,0.212-0.112,0.337-0.337,0.375
	c-0.088,0.025-0.256,0.038-0.506,0.038c-0.013-0.088-0.031-0.181-0.056-0.281c0.175,0.012,0.312,0.018,0.412,0.018
	c0.137,0,0.206-0.069,0.206-0.206V33.1c-0.197,0.065-0.392,0.13-0.581,0.195l-0.037-0.281c0.206-0.055,0.412-0.115,0.619-0.176
	v-1.08h-0.6v-0.225h0.6V30.67h0.281v0.863h0.506v0.225h-0.506v0.995C60.509,32.701,60.672,32.652,60.834,32.6L60.834,32.6z
	 M68.965,32.168v0.225h-2.779c-0.09,0.143-0.186,0.28-0.29,0.412h2.301h0.094h0.131v2.194h-0.225v-0.187h-2.4v0.187h-0.225v-1.817
	c-0.265,0.279-0.562,0.537-0.9,0.767c-0.038-0.075-0.088-0.156-0.15-0.243c0.562-0.363,1.014-0.802,1.362-1.312h-1.25v-0.225h1.395
	c0.083-0.139,0.161-0.282,0.229-0.431h-1.324v-0.226h1.416c0.061-0.152,0.114-0.309,0.161-0.471
	c-0.532,0.015-1.064,0.029-1.596,0.04c-0.013-0.075-0.031-0.15-0.056-0.225c1.475-0.025,2.719-0.069,3.731-0.131l0.038,0.243
	c-0.613,0.025-1.225,0.046-1.838,0.065c-0.047,0.164-0.101,0.324-0.161,0.479h2.018v0.225h-2.11
	c-0.065,0.148-0.137,0.292-0.214,0.431H68.965L68.965,32.168z M65.796,33.05v0.356h2.4V33.05H65.796L65.796,33.05z M68.196,33.631
	h-2.4v0.356h2.4V33.631L68.196,33.631z M68.196,34.587v-0.375h-2.4v0.375H68.196L68.196,34.587z M71.731,32.937
	c-0.002,0.183-0.012,0.352-0.03,0.506h1.607h0.15h0.131c-0.013,0.4-0.025,0.7-0.037,0.9c-0.038,0.375-0.25,0.562-0.637,0.562
	c-0.113,0-0.307,0-0.581,0c-0.013-0.112-0.038-0.206-0.075-0.281c0.3,0.013,0.518,0.019,0.656,0.019
	c0.212,0,0.331-0.131,0.356-0.394c0.009-0.107,0.019-0.296,0.029-0.562h-1.636c-0.022,0.115-0.048,0.224-0.081,0.319
	c-0.125,0.388-0.413,0.725-0.862,1.012c-0.038-0.063-0.101-0.15-0.188-0.263c0.387-0.225,0.637-0.475,0.75-0.75
	c0.106-0.283,0.16-0.641,0.167-1.069h-0.767v-0.262h1.587c-0.071-0.103-0.148-0.208-0.237-0.319l0.225-0.131
	c0.121,0.166,0.225,0.314,0.318,0.45h1.501v0.262h-2.346C71.731,32.936,71.731,32.937,71.731,32.937z M73.533,32.149h-3.094v0.544
	c0,0.975-0.175,1.731-0.525,2.269c-0.063-0.088-0.132-0.163-0.207-0.225c0.313-0.488,0.469-1.169,0.469-2.044V31.08h0.113h0.15
	h1.444c-0.06-0.116-0.126-0.238-0.206-0.375l0.243-0.094c0.094,0.156,0.181,0.313,0.266,0.469h1.347h0.15h0.112v1.069h-0.15H73.533
	L73.533,32.149z M70.439,31.324v0.581h3.094v-0.581H70.439L70.439,31.324z"/>
<path fill="#3A7EBD" d="M61.984-28.668c8.768,0,15.875,7.145,15.875,15.96s-7.107,15.96-15.875,15.96
	c-8.767,0-15.875-7.145-15.875-15.96S53.216-28.668,61.984-28.668L61.984-28.668z"/>
<path fill="#3A7EBD" d="M61.949,5.412c-10.007,0-18.12-8.113-18.12-18.12s8.113-18.12,18.12-18.12s18.12,8.113,18.12,18.12
	S71.956,5.412,61.949,5.412L61.949,5.412z M61.949-29.944c-9.517,0-17.231,7.717-17.231,17.236S52.432,4.528,61.949,4.528
	c9.516,0,17.231-7.717,17.231-17.236S71.465-29.944,61.949-29.944L61.949-29.944z"/>
<path fill="#FFFFFF" d="M59.223-20.018h-2.381c-0.029,0-0.053-0.024-0.053-0.054v-0.663c0-0.029,0.024-0.054,0.053-0.054h2.381
	c0.029,0,0.053,0.024,0.053,0.054v0.663C59.277-20.042,59.253-20.018,59.223-20.018L59.223-20.018z M59.223-16.883h-2.381
	c-0.029,0-0.053-0.024-0.053-0.054V-17.6c0-0.029,0.024-0.054,0.053-0.054h2.381c0.029,0,0.053,0.024,0.053,0.054v0.663
	C59.277-16.907,59.253-16.883,59.223-16.883L59.223-16.883z M59.223-13.748h-2.381c-0.029,0-0.053-0.024-0.053-0.054v-0.662
	c0-0.03,0.024-0.054,0.053-0.054h2.381c0.029,0,0.053,0.024,0.053,0.054v0.662C59.277-13.772,59.253-13.748,59.223-13.748
	L59.223-13.748z M66.625-12.108h-8.798c-0.135,0-0.245-0.111-0.245-0.247V-13.5h1.641c0.164,0,0.298-0.135,0.298-0.302v-0.662
	c0-0.167-0.134-0.302-0.298-0.302h-1.641v-1.869h1.641c0.164,0,0.298-0.135,0.298-0.301v-0.663c0-0.166-0.134-0.301-0.298-0.301
	h-1.641v-1.87h1.641c0.164,0,0.298-0.135,0.298-0.301v-0.663c0-0.166-0.134-0.301-0.298-0.301h-1.641v-1.145
	c0-0.137,0.109-0.248,0.245-0.248h8.798c0.135,0,0.244,0.111,0.244,0.248v9.825C66.869-12.219,66.76-12.108,66.625-12.108
	L66.625-12.108z"/>
<path fill="#FFFFFF" d="M56.18-6.239c-0.11,0.319-0.296,0.593-0.557,0.822c0.362,0.154,0.73,0.311,1.102,0.471l-0.131,0.244
	c-0.386-0.187-0.78-0.37-1.18-0.55c-0.376,0.26-0.868,0.452-1.483,0.569c-0.037-0.075-0.075-0.157-0.112-0.244
	c0.544-0.084,0.984-0.233,1.331-0.44c-0.291-0.129-0.583-0.259-0.881-0.385c0.115-0.158,0.223-0.322,0.327-0.487h-0.703v-0.225
	h0.839c0.085-0.142,0.17-0.284,0.249-0.431l0.206,0.112c-0.065,0.112-0.128,0.217-0.19,0.319H56.8v0.225L56.18-6.239L56.18-6.239z
	 M54.606-5.845c0.253,0.106,0.512,0.215,0.77,0.324c0.252-0.197,0.436-0.436,0.551-0.718h-1.068
	C54.771-6.098,54.686-5.966,54.606-5.845L54.606-5.845z M56.781-7.008c-0.075,0.088-0.137,0.157-0.187,0.207
	c-0.46-0.212-0.84-0.552-1.144-1.009v0.934h-0.244v-0.95c-0.314,0.466-0.687,0.836-1.125,1.1c-0.05-0.075-0.106-0.144-0.168-0.207
	c0.433-0.222,0.782-0.538,1.058-0.937h-0.983v-0.225h1.219v-0.994h0.244v0.994h1.275v0.225h-1.044
	C55.985-7.442,56.351-7.151,56.781-7.008L56.781-7.008z M55.825-8.377c0.162-0.175,0.325-0.362,0.487-0.562l0.206,0.15
	c-0.163,0.187-0.344,0.381-0.544,0.581L55.825-8.377L55.825-8.377z M54.194-8.789l0.206-0.15c0.137,0.175,0.281,0.362,0.431,0.562
	l-0.206,0.15C54.487-8.427,54.344-8.614,54.194-8.789L54.194-8.789z M53.387-7.327c0.125,0.137,0.281,0.306,0.469,0.506l-0.168,0.15
	c-0.148-0.183-0.285-0.348-0.413-0.499v2.468h-0.262V-7.2c-0.157,0.469-0.342,0.893-0.562,1.261
	c-0.025-0.113-0.056-0.231-0.094-0.356c0.289-0.501,0.505-1.029,0.656-1.58v-0.033h-0.582v-0.244h0.581v-0.937h0.262v0.937h0.507
	v0.244h-0.507v0.666L53.387-7.327L53.387-7.327z M57.543-4.871v-0.244h0.506v-1.181h0.131h0.112h2.832h0.15h0.093v1.181h0.506v0.244
	H57.543L57.543-4.871z M60.112-5.114V-6.07h-0.787v0.956H60.112L60.112-5.114z M58.293-5.114h0.788V-6.07h-0.788V-5.114
	L58.293-5.114z M61.124-6.07h-0.788v0.956h0.788V-6.07L61.124-6.07z M59.887-6.595c-0.25-0.162-0.494-0.306-0.731-0.431l0.131-0.188
	c0.237,0.125,0.481,0.263,0.731,0.413L59.887-6.595L59.887-6.595z M61.256-7.027c0,0.325-0.157,0.487-0.469,0.487
	c-0.163,0-0.331,0-0.506,0c-0.013-0.087-0.025-0.175-0.037-0.262c0.162,0.013,0.325,0.018,0.487,0.018c0.175,0,0.262-0.1,0.262-0.3
	v-0.318h-2.439c-0.082,0.418-0.293,0.774-0.635,1.069c-0.013-0.012-0.069-0.081-0.169-0.206c0.187-0.15,0.331-0.337,0.431-0.562
	c0.042-0.091,0.071-0.193,0.096-0.3h-0.733v-0.225h0.765c0.009-0.08,0.022-0.156,0.022-0.244v-0.581v-0.093v-0.114h0.99
	c0.07-0.15,0.13-0.3,0.173-0.45l0.281,0.075c-0.065,0.13-0.13,0.252-0.194,0.375h1.676v0.131v0.075v0.825h0.619v0.225h-0.619
	L61.256-7.027L61.256-7.027z M60.993-8.452h-2.4v0.637c0,0.064-0.004,0.126-0.009,0.188h2.409V-8.452L60.993-8.452z M60.13-7.927
	L59.999-7.74c-0.25-0.15-0.494-0.293-0.731-0.431l0.131-0.168C59.637-8.214,59.88-8.077,60.13-7.927L60.13-7.927z M67.024-8.246
	h-3.112v-0.225h1.519h1.594L67.024-8.246L67.024-8.246z M65.374-9.108c0.125,0.188,0.237,0.363,0.337,0.525L65.43-8.471
	c-0.088-0.162-0.194-0.331-0.318-0.506L65.374-9.108L65.374-9.108z M63.48-7.608v2.906h-0.244v-2.79
	c-0.167,0.33-0.342,0.624-0.525,0.877c-0.038-0.1-0.082-0.194-0.132-0.281c0.45-0.637,0.794-1.362,1.031-2.175l0.244,0.075
	c-0.175,0.518-0.362,0.98-0.56,1.387L63.48-7.608L63.48-7.608z M66.761-7.514h-2.606v-0.225h2.606V-7.514L66.761-7.514z
	 M66.761-6.783h-2.606v-0.225h2.606V-6.783L66.761-6.783z M64.474-6.277h1.969h0.15h0.132v1.556h-0.282v-0.281h-1.969v0.281h-0.281
	v-1.556h0.15H64.474L64.474-6.277z M66.442-5.208v-0.844h-1.969v0.844H66.442L66.442-5.208z M71.273-6.352h-2.7h-0.075h-0.187
	v-2.287h0.15h0.112h0.829c0.052-0.152,0.103-0.307,0.146-0.469l0.243,0.075c-0.042,0.126-0.084,0.259-0.126,0.394h1.607h0.094h0.15
	v2.287h-0.169H71.273L71.273-6.352z M71.273-7.721h-2.7v0.431h2.7V-7.721L71.273-7.721z M71.273-6.614v-0.431h-2.7v0.431H71.273
	L71.273-6.614z M68.573-8.396v0.432h2.7v-0.432H68.573L68.573-8.396z M67.936-5.002c-0.075-0.05-0.15-0.094-0.225-0.131
	c0.2-0.275,0.337-0.537,0.412-0.787l0.244,0.075C68.242-5.52,68.098-5.239,67.936-5.002L67.936-5.002z M69.773-6.202
	c0.175,0.15,0.387,0.331,0.637,0.544l-0.225,0.15c-0.238-0.225-0.444-0.412-0.619-0.562L69.773-6.202L69.773-6.202z M69.155-5.264
	c0,0.15,0.1,0.225,0.3,0.225h1.012c0.212,0,0.337-0.069,0.375-0.206c0.025-0.087,0.044-0.194,0.056-0.319
	c0.087,0.037,0.175,0.069,0.263,0.093c-0.026,0.138-0.05,0.25-0.075,0.338c-0.075,0.212-0.269,0.318-0.581,0.318h-1.106
	c-0.35,0-0.525-0.144-0.525-0.431v-0.675h0.281V-5.264L69.155-5.264z M72.211-5.264l-0.262,0.15
	c-0.213-0.262-0.438-0.512-0.675-0.75l0.225-0.131C71.748-5.758,71.986-5.514,72.211-5.264L72.211-5.264z"/>
<g>
	<polygon fill="#FFFFFF" points="-207.367,-45.684 -207.367,-46.654 56.793,-46.654 56.793,-45.684 	"/>
	<polygon fill="#FFFFFF" points="69.012,-45.684 69.012,-46.654 333.172,-46.654 333.172,-45.684 	"/>
	<polygon fill="#FFFFFF" points="62.907,-39.126 56.119,-45.987 56.797,-46.673 63.586,-39.812 	"/>
	<polygon fill="#FFFFFF" points="62.907,-39.126 62.228,-39.812 69.017,-46.673 69.695,-45.987 	"/>
</g>
<path fill="#FFFFFF" d="M-175.48-62.099l-0.471,0.472c-0.655-0.588-1.334-1.119-2.031-1.602v5.201h-0.581v-8.433h0.581v2.992
	l0.29-0.266C-176.943-63.202-176.204-62.656-175.48-62.099L-175.48-62.099z M-183.568-58.064c-0.098-0.17-0.206-0.316-0.327-0.436
	c0.994-0.657,1.803-1.479,2.436-2.459c-0.466-0.462-0.936-0.916-1.42-1.358l0.363-0.364c0.434,0.372,0.89,0.777,1.359,1.204
	c0.491-0.889,0.851-1.893,1.074-3.022h-2.357c-0.39,0.907-0.845,1.705-1.382,2.363c-0.121-0.169-0.23-0.315-0.327-0.437
	c0.846-1.041,1.488-2.35,1.922-3.926l0.435,0.182c-0.134,0.475-0.285,0.92-0.448,1.345h2.189h0.254h0.181v0.472
	C-180.122-61.711-181.441-59.566-183.568-58.064L-183.568-58.064z M-166.643-58.028v-0.364h-6.492v0.364h-0.545v-8.034h0.254h0.29
	h6.492h0.253h0.29v8.034H-166.643L-166.643-58.028z M-173.135-65.589v6.725h6.492v-6.725H-173.135L-173.135-65.589z
	 M-167.514-64.062h-2.393v0.872h2.103v0.436h-2.103v0.909h1.85h0.181h0.327c-0.049,0.582-0.072,0.981-0.072,1.199
	c-0.049,0.534-0.351,0.8-0.907,0.8c-0.363,0-0.702,0-1.016,0c-0.024-0.219-0.061-0.401-0.109-0.545
	c0.387,0.049,0.762,0.072,1.125,0.072c0.241,0,0.375-0.097,0.399-0.29c0.016-0.216,0.033-0.494,0.049-0.8h-1.827v2.145h-0.544
	v-2.145h-2.176v-0.436h2.176v-0.909h-1.814v-0.436h1.814v-0.872h-2.031v-0.437h2.031v-0.727h0.544v0.727h2.394v0.437H-167.514z
	 M-159.62-61.554h2.938v0.545h-2.938v2.072c1.236,0.021,2.505-0.003,3.809-0.072c-0.097,0.266-0.17,0.497-0.218,0.691
	c-1.668,0-2.95-0.013-3.844-0.037c-1.216-0.044-2.156-0.629-2.827-1.748c-0.297,0.745-0.67,1.428-1.127,2.039
	c-0.145-0.17-0.278-0.304-0.399-0.4c0.871-1.091,1.415-2.4,1.632-3.926l0.508,0.109c-0.098,0.553-0.239,1.07-0.403,1.569
	c0.571,1.04,1.345,1.626,2.325,1.747v-3.571h-3.844v-0.508h3.699v-1.854h-3.047v-0.509h3.047v-1.09h0.508v1.09h3.047v0.509h-3.047
	v1.854h3.772v0.508h-3.591L-159.62-61.554L-159.62-61.554z M-145.923-64.898h-7.145v2.872c0,1.697-0.351,3.017-1.052,3.963
	c-0.121-0.146-0.254-0.291-0.399-0.436c0.604-0.8,0.919-1.975,0.943-3.527v-3.344h0.29h0.217h3.228
	c-0.157-0.315-0.314-0.63-0.471-0.945l0.508-0.218c0.218,0.339,0.399,0.667,0.544,0.981l-0.389,0.182h3.726V-64.898L-145.923-64.898
	z M-152.342-60.39v-0.582v-2.981h0.253h0.218h0.708c-0.109-0.203-0.214-0.403-0.345-0.618l0.435-0.218
	c0.156,0.29,0.299,0.566,0.434,0.836h0.51h0.217h0.217v3.09h-0.253h-0.181h-1.741v0.473v1.381c0.456-0.171,0.95-0.352,1.467-0.539
	c-0.166-0.254-0.33-0.502-0.488-0.733l0.363-0.254c0.411,0.558,0.81,1.14,1.196,1.745l-0.399,0.291
	c-0.134-0.214-0.261-0.409-0.389-0.61c-0.576,0.181-1.114,0.371-1.605,0.573c-0.145,0.073-0.302,0.157-0.471,0.255l-0.29-0.437
	c0.097-0.121,0.146-0.314,0.146-0.582v-1.09H-152.342z M-151.87-63.517v0.909h1.741v-0.909H-151.87L-151.87-63.517z M-150.13-62.208
	h-1.741v0.909h1.741V-62.208L-150.13-62.208z M-148.354-64.207h2.104v0.472l-0.798,1.745c0.435,0.461,0.713,0.945,0.834,1.454
	c0.072,0.8-0.205,1.212-0.834,1.236c-0.121,0.024-0.363,0.024-0.725,0c-0.024-0.194-0.061-0.363-0.109-0.508
	c0.242,0.024,0.471,0.036,0.689,0.036c0.386,0,0.556-0.218,0.508-0.654c-0.097-0.46-0.399-0.958-0.907-1.491l0.798-1.818h-1.56v5.78
	h-0.471v-6.252h0.073L-148.354-64.207L-148.354-64.207z"/>
<path fill="#FFFFFF" d="M-151.242-77.934c-0.408,0-0.739-0.33-0.739-0.738c0-7.245-5.897-13.139-13.145-13.139
	c-7.249,0-13.146,5.894-13.146,13.139c0,0.408-0.331,0.738-0.739,0.738c-0.409,0-0.739-0.33-0.739-0.738
	c0-8.06,6.56-14.617,14.624-14.617c8.063,0,14.623,6.557,14.623,14.617C-150.503-78.265-150.833-77.934-151.242-77.934
	L-151.242-77.934z M-158.038-78.562c-0.409,0-0.739-0.33-0.739-0.738c0-3.501-2.849-6.348-6.351-6.348s-6.352,2.847-6.352,6.348
	c0,0.408-0.33,0.738-0.739,0.738c-0.408,0-0.738-0.33-0.738-0.738c0-4.315,3.512-7.825,7.829-7.825s7.829,3.51,7.829,7.825
	C-157.299-78.892-157.63-78.562-158.038-78.562L-158.038-78.562z"/>
<path fill="#FFFFFF" d="M-101.777-58.217c-0.146,0.194-0.279,0.375-0.399,0.545c-1.938-0.806-3.184-2.287-3.751-4.433
	c-0.322,1.915-1.606,3.467-3.866,4.651c-0.072-0.146-0.194-0.327-0.362-0.545c2.355-1.135,3.614-2.788,3.806-4.944h-3.733v-0.545
	h3.773c0.023-0.789,0.035-1.588,0.035-2.4h0.616c0,0.789-0.012,1.59-0.035,2.4h3.88v0.545h-3.781
	C-105.12-60.569-103.854-58.986-101.777-58.217L-101.777-58.217z M-98.852-64.906v3.272c0,1.697-0.375,3.054-1.125,4.072
	c-0.145-0.17-0.278-0.316-0.399-0.437c0.653-0.872,0.979-2.072,0.979-3.599v-3.78h0.254h0.29h7v0.472H-98.852L-98.852-64.906z
	 M-92.142-62.724h-2.575v4.107c0,0.703-0.351,1.055-1.052,1.055c-0.387,0-0.749,0-1.088,0c-0.049-0.194-0.097-0.376-0.145-0.545
	c0.338,0.024,0.725,0.036,1.16,0.036c0.387,0,0.58-0.194,0.58-0.582v-4.071h-3.01v-0.509h6.129L-92.142-62.724L-92.142-62.724z"/>
<path fill="#FFFFFF" d="M-93.354-72.707h-14.35c-0.786,0-1.426-0.644-1.426-1.434v-4.06c0-0.791,0.64-1.434,1.426-1.434h14.35
	c0.787,0,1.427,0.644,1.427,1.434v4.06C-91.927-73.351-92.567-72.707-93.354-72.707L-93.354-72.707z M-93.253-78.201
	c0-0.055-0.045-0.101-0.1-0.101h-14.35c-0.055,0-0.1,0.046-0.1,0.101v4.06c0,0.055,0.045,0.101,0.1,0.101h14.35
	c0.055,0,0.1-0.045,0.1-0.101V-78.201L-93.253-78.201z M-93.303-80.658h-14.349c-0.787,0-1.428-0.643-1.428-1.434v-9.19
	c0-0.79,0.641-1.434,1.428-1.434h14.349c0.787,0,1.427,0.644,1.427,1.434v9.19C-91.876-81.301-92.516-80.658-93.303-80.658
	L-93.303-80.658z M-93.202-91.282c0-0.055-0.045-0.1-0.1-0.1h-14.35c-0.056,0-0.101,0.045-0.101,0.1v9.19
	c0,0.055,0.045,0.101,0.101,0.101h14.349c0.055,0,0.1-0.046,0.1-0.101L-93.202-91.282L-93.202-91.282z M-111.637-72.707h-1.359
	c-0.677,0-1.227-0.553-1.227-1.233v-12.8c0-0.68,0.551-1.233,1.227-1.233h1.359c0.676,0,1.227,0.554,1.227,1.233v12.8
	C-110.411-73.26-110.961-72.707-111.637-72.707L-111.637-72.707z M-111.737-86.641h-1.16v12.601h1.16V-86.641L-111.737-86.641z
	 M-88.06-72.707h-1.359c-0.677,0-1.227-0.553-1.227-1.233v-12.8c0-0.68,0.551-1.233,1.227-1.233h1.359
	c0.677,0,1.227,0.554,1.227,1.233v12.8C-86.833-73.26-87.383-72.707-88.06-72.707L-88.06-72.707z M-88.159-86.641h-1.161v12.601
	h1.161V-86.641L-88.159-86.641z"/>
<path fill="#FFFFFF" d="M-47.786-65.256v5.925c0,0.8-0.375,1.2-1.125,1.2c-0.362,0-0.846-0.013-1.451-0.037
	c-0.024-0.218-0.061-0.424-0.109-0.618c0.459,0.049,0.943,0.073,1.451,0.073c0.459,0,0.689-0.219,0.689-0.655v-5.889h-6.491v-0.508
	h8.523v0.508L-47.786-65.256L-47.786-65.256z M-53.553-63.838h2.83h0.29h0.29v3.453h-0.29h-0.29h-2.576h-0.254h-0.326v-3.417h0.326
	V-63.838L-53.553-63.838z M-50.723-60.893v-2.436h-2.576v2.436H-50.723L-50.723-60.893z M-36.483-58.385h-5.259v-0.472h0.689v-7.016
	h0.181h0.399h2.72h0.327h0.253v7.016h0.689v0.472H-36.483z M-37.752-63.074h-2.72v1.89h2.72V-63.074L-37.752-63.074z
	 M-40.473-65.401v1.853h2.72v-1.853H-40.473L-40.473-65.401z M-37.752-60.748h-2.72v1.89h2.72V-60.748L-37.752-60.748z
	 M-42.576-62.674c0.338,0.339,0.653,0.654,0.943,0.945l-0.471,0.29c-0.214-0.279-0.473-0.568-0.762-0.866v4.356h-0.544v-4.424
	c-0.354,0.93-0.796,1.745-1.342,2.425c-0.145-0.097-0.29-0.194-0.435-0.29c0.781-0.935,1.346-1.993,1.718-3.163h-1.355v-0.437h1.414
	v-1.625c-0.419,0.047-0.833,0.092-1.233,0.134c-0.024-0.146-0.061-0.291-0.109-0.436c0.991-0.073,1.958-0.169,2.901-0.291l0.109,0.4
	c-0.384,0.046-0.754,0.089-1.124,0.131v1.687h1.161v0.436h-1.161v0.912L-42.576-62.674L-42.576-62.674z M-31.132-61.984
	c-0.004,0.355-0.022,0.684-0.057,0.982h3.108h0.29h0.254c-0.024,0.775-0.049,1.358-0.072,1.745c-0.073,0.727-0.484,1.09-1.233,1.09
	c-0.218,0-0.593,0-1.125,0c-0.024-0.218-0.072-0.4-0.145-0.545c0.58,0.024,1.004,0.036,1.27,0.036c0.411,0,0.64-0.255,0.689-0.763
	c0.019-0.208,0.038-0.574,0.057-1.091h-3.166c-0.043,0.223-0.092,0.434-0.156,0.618c-0.242,0.752-0.797,1.406-1.668,1.964
	c-0.072-0.122-0.194-0.291-0.363-0.509c0.749-0.436,1.233-0.921,1.451-1.454c0.205-0.549,0.31-1.243,0.322-2.072h-1.482v-0.508
	h3.071c-0.138-0.198-0.287-0.403-0.46-0.618l0.435-0.255c0.235,0.321,0.436,0.608,0.615,0.873h2.904v0.508h-4.539V-61.984z
	 M-27.646-63.511h-5.985v1.055c0,1.89-0.338,3.357-1.015,4.399c-0.121-0.17-0.253-0.316-0.399-0.436
	c0.604-0.945,0.907-2.266,0.907-3.963v-3.126h0.218h0.29h2.793c-0.115-0.225-0.244-0.462-0.399-0.727l0.471-0.182
	c0.181,0.303,0.349,0.606,0.514,0.909h2.606h0.29h0.218v2.071h-0.29H-27.646L-27.646-63.511z M-33.631-65.11v1.127h5.985v-1.127
	H-33.631L-33.631-65.11z M-17.939-58.022c-0.315,0-0.629,0-0.943,0c-0.024-0.072-0.061-0.242-0.109-0.508
	c0.363,0.024,0.701,0.036,1.015,0.036s0.471-0.182,0.471-0.545v-6.435h-4.461v-0.472h4.461h0.217h0.254v6.979
	C-17.032-58.337-17.334-58.022-17.939-58.022L-17.939-58.022z M-19.353-64.129h0.217v4.253h-0.217v0.037H-22.4v-0.037h-0.29v-4.253
	h0.29h0.218h2.539H-19.353L-19.353-64.129z M-19.644-61.765h-2.538v1.454h2.539L-19.644-61.765L-19.644-61.765z M-22.182-63.656
	v1.417h2.539v-1.417H-22.182L-22.182-63.656z M-24.25-66.201l0.327-0.327c0.387,0.364,0.738,0.703,1.052,1.018l-0.362,0.364
	C-23.524-65.486-23.864-65.837-24.25-66.201L-24.25-66.201z M-24.25-58.022h-0.508v-6.761h0.508V-58.022L-24.25-58.022z"/>
<path fill="#FFFFFF" d="M-32.885-73.704v-7.754c0-0.066-0.054-0.12-0.12-0.12h-5.855c-0.066,0-0.12,0.053-0.12,0.12v7.754h-1.526
	v-7.754c0-0.91,0.738-1.65,1.646-1.65h5.855c0.907,0,1.646,0.74,1.646,1.65v7.754H-32.885L-32.885-73.704z M-27.638-73.704h-4.484
	v-1.53h4.484c0.066,0,0.12-0.054,0.12-0.12v-14.063l1.526,0.765v13.298C-25.993-74.444-26.731-73.704-27.638-73.704L-27.638-73.704z
	 M-45.871-75.354v-13.299l1.525-0.765v14.063c0,0.066,0.054,0.12,0.12,0.12h4.483v1.53h-4.483
	C-45.133-73.704-45.871-74.444-45.871-75.354L-45.871-75.354z M-22.425-86.344c-0.211,0.366-0.678,0.491-1.043,0.279l-12.47-8.759
	l-12.887,8.765c-0.118,0.066-0.246,0.097-0.372,0.097c-0.268,0-0.527-0.14-0.667-0.391c-0.205-0.369-0.074-0.835,0.294-1.041
	l13.266-8.977c0.234-0.132,0.52-0.13,0.755,0.005l12.846,8.977C-22.34-87.178-22.215-86.709-22.425-86.344L-22.425-86.344z"/>
<g>
	<g>
		<g>
			<path id="SVGID_1_" fill="#FFFFFF" d="M14.463-60.172c-1.369-0.944-2.511-2.506-3.424-4.685c-0.1-0.238-0.21-0.456-0.318-0.675
				c-0.562,2.337-1.831,4.153-3.827,5.432c-0.12-0.169-0.252-0.327-0.396-0.472c2.042-1.235,3.303-3.074,3.784-5.52v-0.233
				c-0.381-0.622-0.798-1.159-1.261-1.583l0.36-0.29c0.793,0.605,1.49,1.622,2.091,3.051c0.937,2.155,2.102,3.631,3.496,4.431
				C14.799-60.548,14.631-60.367,14.463-60.172L14.463-60.172z M24.867-60.717v0.508h-5.911v-0.508h2.703v-2.688h-2.018v-0.508
				h2.018v-2.361h-2.343v-0.509h5.334v0.508h-2.487v2.361h2.126v0.508h-2.126v2.688h2.704V-60.717z M21.263-67.981l0.396-0.327
				c0.217,0.29,0.444,0.63,0.685,1.017l-0.432,0.364C21.695-67.339,21.478-67.69,21.263-67.981L21.263-67.981z M18.163-65.475v5.593
				h-0.469v-5.427c-0.353,0.658-0.723,1.253-1.117,1.758c-0.072-0.194-0.157-0.375-0.252-0.545c0.913-1.235,1.622-2.639,2.126-4.213
				l0.469,0.182c-0.348,0.989-0.726,1.87-1.131,2.652H18.163L18.163-65.475z M34.585-60.572c-0.144,0.194-0.241,0.351-0.288,0.472
				c-1.622-0.438-2.805-1.129-3.558-2.07h-0.011v2.397h-0.505v-2.397h-0.045c-0.84,0.888-2.047,1.639-3.63,2.252
				c-0.072-0.146-0.168-0.29-0.289-0.436c1.341-0.464,2.419-1.074,3.267-1.816h-3.087v-0.436h3.784v-0.545h0.505v0.545h3.784v0.436
				h-3.153C32.155-61.41,33.219-60.868,34.585-60.572L34.585-60.572z M31.436-64.191c0.85,0.23,1.672,0.467,2.465,0.714
				l-0.217,0.508c-0.915-0.307-1.871-0.602-2.867-0.885c-0.965,0.454-2.224,0.788-3.801,0.993c-0.072-0.121-0.168-0.266-0.289-0.436
				c1.387-0.14,2.507-0.392,3.393-0.747c-0.751-0.205-1.516-0.405-2.311-0.596c0.267-0.324,0.499-0.623,0.712-0.908h-2.153v-0.436
				h2.471c0.202-0.287,0.381-0.557,0.52-0.799l0.505,0.254c-0.129,0.191-0.259,0.366-0.387,0.545h5.036v0.436h-1.749
				C32.491-65.026,32.049-64.574,31.436-64.191L31.436-64.191z M28.638-64.894c0.739,0.171,1.453,0.351,2.154,0.534
				c0.593-0.328,1.03-0.724,1.307-1.188h-2.941C28.985-65.321,28.811-65.099,28.638-64.894L28.638-64.894z M33.72-67.145h-6.632
				v0.763h-0.505v-1.235H26.8h0.288h3.211c-0.095-0.191-0.201-0.394-0.327-0.618l0.432-0.181c0.169,0.277,0.312,0.541,0.444,0.799
				h2.872h0.288h0.217v1.235H33.72V-67.145L33.72-67.145z M43.258-59.954c-0.288,0-0.673,0-1.153,0c0-0.17-0.024-0.352-0.072-0.545
				c0.456,0.048,0.805,0.072,1.045,0.072c0.384,0,0.577-0.206,0.577-0.618v-7.227h0.469v7.445
				C44.124-60.245,43.836-59.954,43.258-59.954L43.258-59.954z M42.177-66.927h0.432v4.976h-0.432V-66.927L42.177-66.927z
				 M39.55-65.838h1.402h0.217h0.216v0.472c-0.192,2.47-1.154,4.274-2.884,5.412c0-0.024-0.12-0.182-0.36-0.472
				c0.943-0.576,1.642-1.358,2.115-2.333c-0.357-0.271-0.714-0.527-1.07-0.755l0.252-0.399c0.328,0.22,0.674,0.449,1.029,0.683
				c0.248-0.647,0.406-1.371,0.472-2.172h-1.515c-0.269,0.862-0.607,1.655-1.032,2.36c-0.12-0.169-0.24-0.314-0.361-0.435
				c0.704-1.076,1.152-2.377,1.363-3.886h-1.002v-0.436h3.352v0.436h-1.859C39.799-66.829,39.683-66.325,39.55-65.838L39.55-65.838z
				 M37.528-65.475v5.629h-0.469v-5.303c-0.243,0.585-0.502,1.158-0.793,1.708c-0.049-0.146-0.133-0.339-0.253-0.582
				c0.624-1.137,1.141-2.554,1.55-4.249l0.505,0.109c-0.238,0.934-0.532,1.828-0.873,2.688H37.528L37.528-65.475z"/>
		</g>
	</g>
	<g>
		<g>
			<path id="SVGID_3_" fill="#FFFFFF" d="M35.662-75.085H15.988c-0.808,0-1.466-0.653-1.466-1.457v-13.762
				c0-0.803,0.658-1.457,1.466-1.457h19.674c0.808,0,1.465,0.654,1.465,1.457v13.762C37.128-75.739,36.471-75.085,35.662-75.085
				L35.662-75.085z M36.043-90.304c0-0.208-0.171-0.378-0.381-0.378H15.988c-0.21,0-0.381,0.17-0.381,0.378v13.762
				c0,0.208,0.171,0.378,0.381,0.378h19.674c0.21,0,0.381-0.17,0.381-0.378L36.043-90.304L36.043-90.304z M30.451-90.784
				c-0.3,0-0.542-0.241-0.542-0.539v-4.068h-8.167v4.067c0,0.299-0.243,0.539-0.543,0.539c-0.299,0-0.542-0.241-0.542-0.539v-4.606
				c0-0.298,0.243-0.539,0.542-0.539h9.252c0.299,0,0.542,0.242,0.542,0.539v4.607C30.993-91.025,30.75-90.784,30.451-90.784
				L30.451-90.784z M19.22-77.798c-0.251,0-0.454-0.202-0.454-0.452v-10.448c0-0.249,0.204-0.452,0.454-0.452
				s0.454,0.203,0.454,0.452v10.449C19.675-78.001,19.471-77.798,19.22-77.798L19.22-77.798z M25.825-77.746
				c-0.251,0-0.454-0.203-0.454-0.452v-10.449c0-0.249,0.204-0.452,0.454-0.452c0.251,0,0.454,0.203,0.454,0.452v10.449
				C26.279-77.95,26.075-77.746,25.825-77.746L25.825-77.746z M32.429-77.696c-0.251,0-0.454-0.203-0.454-0.452v-10.449
				c0-0.249,0.204-0.452,0.454-0.452s0.454,0.202,0.454,0.452v10.449C32.883-77.899,32.68-77.696,32.429-77.696L32.429-77.696z"/>
		</g>
	</g>
</g>
<path fill="#3A7EBD" d="M81.549-90.934c7.18,0,13,5.82,13,13s-5.82,13-13,13s-13-5.82-13-13S74.369-90.934,81.549-90.934
	L81.549-90.934z"/>
<polygon fill="#FFFFFF" points="89.18,-83.942 88.21,-84.913 81.931,-78.633 75.651,-84.913 74.68,-83.942 80.96,-77.662 
	74.68,-71.383 75.651,-70.413 81.931,-76.692 88.21,-70.413 89.18,-71.383 82.902,-77.662 "/>
<path fill="#3A7EBD" d="M119.377-89.74h46.451c3.079,0,5.574,2.496,5.574,5.574v13.006c0,3.079-2.496,5.574-5.574,5.574h-46.451
	c-3.078,0.001-5.574-2.495-5.574-5.573v-13.006C113.803-87.244,116.299-89.74,119.377-89.74L119.377-89.74z"/>
<path fill="#FFFFFF" d="M136.231-76.774h12.466v-0.653h-12.466V-76.774L136.231-76.774z M142.709-74.542h5.062v-0.653h-5.062
	V-74.542L142.709-74.542z M142.274-72.31h0.817v-4.682h-0.817V-72.31L142.274-72.31z M135.905-71.82
	c0.182,0.144,0.363,0.308,0.545,0.49c1.27-1.162,2.286-2.667,3.048-4.518l-0.653-0.218C138.191-74.36,137.211-72.945,135.905-71.82
	L135.905-71.82L135.905-71.82z M138.463-74.542c0.617,1.851,1.996,2.776,4.137,2.776c1.742,0,3.756,0,6.042,0
	c0.109-0.291,0.199-0.564,0.272-0.817c-1.96,0.036-4.083,0.055-6.369,0.055c-1.924,0-3.157-0.907-3.701-2.721L138.463-74.542
	L138.463-74.542z M138.082-78.679h0.708v-4.9h-0.708V-78.679L138.082-78.679z M138.572-82.98h7.73v-0.598h-7.73V-82.98
	L138.572-82.98z M146.139-78.679h0.653v-4.9h-0.653V-78.679L146.139-78.679z M138.572-78.679h7.73v-0.653h-7.73V-78.679
	L138.572-78.679z M138.627-80.857h7.729v-0.599h-7.729V-80.857L138.627-80.857z"/>
<g>
	<g>
		<g>
			<path id="SVGID_4_" fill="#3A7EBD" d="M183.338-89.74h46.451c3.079,0,5.574,2.496,5.574,5.574v13.006
				c0,3.079-2.496,5.574-5.574,5.574h-46.451c-3.079,0.001-5.575-2.495-5.575-5.573v-13.006
				C177.763-87.244,180.259-89.74,183.338-89.74L183.338-89.74z"/>
		</g>
	</g>
	<g>
		<g>
			<path id="SVGID_2_" fill="#FFFFFF" d="M201.77-71.439h0.817v-5.607h-0.817V-71.439L201.77-71.439z M202.151-76.23h8.492v-0.817
				h-8.492V-76.23L202.151-76.23z M210.262-71.439h0.816v-5.607h-0.816V-71.439L210.262-71.439z M202.042-72.202h8.493v-0.762
				h-8.493V-72.202L202.042-72.202z M200.463-82.653h11.813v-0.763h-11.813V-82.653L200.463-82.653z M206.016-77.754h0.871v-4.572
				h-0.871V-77.754L206.016-77.754z M200.028-78.679c0.218,0.291,0.381,0.563,0.49,0.816c3.084-1.342,5.37-2.994,6.859-4.953
				l-0.925-0.109C204.89-81.147,202.75-79.731,200.028-78.679L200.028-78.679L200.028-78.679z M207.595-80.639
				c1.706,0.98,3.212,1.905,4.518,2.776l0.599-0.653c-1.271-0.762-2.813-1.669-4.627-2.721L207.595-80.639L207.595-80.639z"/>
		</g>
	</g>
</g>
<path fill="#3A7EBD" d="M-175.056-123.361v10.093h2.324v0.798h-15.605v-0.798h2.125v-10.027h0.399h0.597h4.117v-1.793h-6.906v-0.797
	h6.906v-1.46h0.93v1.46h7.106v0.797h-7.106v1.793h4.183v-0.066H-175.056L-175.056-123.361z M-185.216-115.79h9.23v-1.727h-9.23
	V-115.79L-185.216-115.79z M-185.216-118.314h9.23v-1.661h-9.23V-118.314L-185.216-118.314z M-175.986-113.268v-1.726h-9.23v1.726
	H-175.986L-175.986-113.268z M-185.216-122.498v1.727h9.23v-1.727H-185.216L-185.216-122.498z M-154.759-112.537h-9.629v-0.863
	h1.262v-12.816h0.332h0.731h4.981h0.597h0.465v12.816h1.262v0.863H-154.759z M-157.083-121.103h-4.981v3.453h4.981V-121.103
	L-157.083-121.103z M-162.064-125.354v3.388h4.981v-3.388H-162.064L-162.064-125.354z M-157.083-116.854h-4.981v3.454h4.981
	V-116.854L-157.083-116.854z M-165.916-120.372c0.62,0.62,1.196,1.195,1.727,1.726l-0.863,0.532
	c-0.392-0.509-0.864-1.038-1.395-1.582v7.956h-0.996v-8.044c-0.646,1.687-1.462,3.155-2.456,4.392
	c-0.266-0.176-0.531-0.353-0.797-0.531c1.432-1.71,2.485-3.637,3.167-5.777h-2.504v-0.798h2.59v-2.968
	c-0.767,0.086-1.524,0.169-2.257,0.246c-0.045-0.266-0.112-0.531-0.199-0.797c1.815-0.133,3.586-0.309,5.312-0.531l0.199,0.731
	c-0.703,0.084-1.38,0.161-2.059,0.238v3.081h2.126v0.798h-2.126v1.666L-165.916-120.372L-165.916-120.372z M-136.854-113.865
	c-0.221,1.106-0.907,1.661-2.059,1.661h-3.652c-1.195,0-1.793-0.577-1.793-1.727v-3.719h-0.367
	c-0.091,0.258-0.188,0.505-0.296,0.731c-1.063,2.258-3.232,3.985-6.508,5.18c-0.177-0.266-0.398-0.597-0.664-0.995
	c3.009-0.974,5.068-2.413,6.176-4.317c0.105-0.182,0.197-0.385,0.284-0.598h-3.605h-0.531h-0.531v-4.56
	c-0.366,0.318-0.74,0.624-1.129,0.906c-0.132-0.266-0.288-0.531-0.465-0.797c1.904-1.371,3.454-3.121,4.649-5.246l0.797,0.464
	c-0.233,0.391-0.478,0.764-0.728,1.13h5.442h0.597h0.333v0.93l-1.294,2.059h3.087v0.067h0.531v5.046h-0.465h-0.531h-3.851v3.586
	c0,0.621,0.353,0.93,1.062,0.93h3.32c0.708,0,1.106-0.309,1.196-0.93c0.132-0.575,0.22-1.305,0.266-2.191
	c0.353,0.132,0.685,0.244,0.995,0.332C-136.677-115.082-136.765-114.396-136.854-113.865L-136.854-113.865z M-145.429-118.579
	c0.223-0.892,0.336-1.981,0.341-3.254h-4.249v3.254H-145.429L-145.429-118.579z M-142.004-124.822h-5.947
	c-0.575,0.747-1.19,1.433-1.842,2.059h6.469L-142.004-124.822L-142.004-124.822z M-139.576-121.834h-4.469
	c-0.049,1.243-0.181,2.331-0.403,3.254h4.871L-139.576-121.834L-139.576-121.834z M-120.873-112.006c-0.532,0-1.13,0-1.793,0
	c-0.045-0.266-0.133-0.576-0.266-0.929c0.663,0.043,1.261,0.066,1.793,0.066c0.575,0,0.863-0.332,0.863-0.996v-3.187h-3.254v4.449
	h-0.996v-4.449h-3.318c-0.065,0.677-0.152,1.295-0.268,1.826c-0.266,1.218-0.708,2.335-1.328,3.354
	c-0.222-0.31-0.465-0.621-0.731-0.93c0.531-0.84,0.907-1.836,1.13-2.988c0.221-1.196,0.332-2.59,0.332-4.184v-6.508h0.597h0.399
	h7.438h0.465h0.531v12.816C-119.279-112.56-119.811-112.006-120.873-112.006L-120.873-112.006z M-120.276-117.916v-3.387h-3.254
	v3.387H-120.276L-120.276-117.916z M-124.526-117.916v-3.387h-3.187v1.262c0,0.772-0.027,1.469-0.066,2.125H-124.526
	L-124.526-117.916z M-127.713-122.232h3.187v-3.32h-3.187V-122.232L-127.713-122.232z M-123.53-125.552v3.32h3.254v-3.32H-123.53
	L-123.53-125.552z M-131.1-122.099v10.293h-0.93v-9.809c-0.49,1.105-1.011,2.189-1.594,3.234c-0.089-0.267-0.266-0.62-0.531-1.063
	c1.239-2.125,2.28-4.736,3.121-7.835l0.997,0.2c-0.493,1.724-1.092,3.38-1.776,4.98H-131.1L-131.1-122.099z M-113.393-111.142
	l-0.399-0.399c0.752-0.531,1.15-1.461,1.196-2.789h-1.13v-1.859h1.86c0,0.266,0,0.863,0,1.793
	C-111.866-112.892-112.375-111.806-113.393-111.142L-113.393-111.142z M-87.186-115.592c0.929-0.619,1.815-1.35,2.656-2.191
	l0.797,0.465c-0.93,0.886-1.859,1.682-2.789,2.39C-86.701-115.149-86.921-115.37-87.186-115.592L-87.186-115.592z M-85.128-119.841
	h-11.023v-0.864h11.024v-1.992h-10.427v-0.796h10.426v-1.993h-10.891v-0.864h11.422v0.067h0.464v6.441h-0.398L-85.128-119.841
	L-85.128-119.841z M-93.23-115.658l-0.797,0.531c-0.93-0.885-1.771-1.66-2.524-2.324l0.731-0.465
	C-94.846-117.074-93.983-116.321-93.23-115.658L-93.23-115.658z M-90.972-116.521c0.309-0.708,0.487-1.638,0.531-2.789h0.996
	c-0.034,0.48-0.087,0.91-0.151,1.315c0.959,2.807,3.35,4.651,7.19,5.525c-0.31,0.353-0.554,0.619-0.731,0.797
	c-3.426-0.97-5.677-2.619-6.786-4.934c-0.039,0.118-0.076,0.244-0.12,0.351c-0.974,2.302-3.365,3.785-7.172,4.449
	c-0.177-0.266-0.354-0.531-0.531-0.797C-94.116-113.179-91.859-114.484-90.972-116.521L-90.972-116.521z M-64.035-122.299v0.864
	h-5.313v2.922h3.055h0.531h0.398v6.773h-0.929v-1.129h-7.04v1.129h-0.929v-6.773h0.531h0.398h2.989v-2.922h-4.98v-0.864h4.98v-3.027
	c-1.399,0.131-2.775,0.257-4.117,0.371c-0.044-0.309-0.132-0.642-0.266-0.996c3.32-0.177,6.575-0.465,9.762-0.863l0.266,0.929
	c-1.584,0.165-3.131,0.319-4.648,0.464v3.122H-64.035L-64.035-122.299z M-73.332-113.732h7.04v-3.918h-7.04V-113.732
	L-73.332-113.732z M-79.242-126.35l0.664-0.73c0.974,0.797,1.836,1.527,2.59,2.191l-0.731,0.731
	C-77.516-124.91-78.357-125.641-79.242-126.35L-79.242-126.35z M-76.519-120.771l-0.731,0.797c-0.841-0.797-1.682-1.505-2.524-2.125
	l0.664-0.731C-78.312-122.254-77.449-121.568-76.519-120.771L-76.519-120.771z M-76.653-117.849
	c-0.708,2.347-1.285,4.294-1.726,5.843l-1.062-0.464c0.619-1.638,1.216-3.563,1.793-5.778
	C-77.25-118.07-76.918-117.938-76.653-117.849L-76.653-117.849z M-46.86-117.052c-0.531-1.417-1.041-2.767-1.527-4.051l0.798-0.332
	c0.531,1.285,1.062,2.634,1.594,4.05L-46.86-117.052L-46.86-117.052z M-58.68-121.236c-0.62,1.639-1.328,3.166-2.125,4.582
	c-0.266-0.176-0.531-0.332-0.797-0.465c0.797-1.371,1.505-2.855,2.125-4.449L-58.68-121.236L-58.68-121.236z M-51.641-112.338
	c-0.709,0-1.484-0.023-2.324-0.066c-0.09-0.355-0.178-0.709-0.266-1.062c1.018,0.088,1.836,0.132,2.456,0.132
	c0.93,0,1.417-0.531,1.461-1.594c0.123-2.01,0.228-4.851,0.312-8.5h-4.89c-0.001,0.156-0.004,0.308-0.004,0.465
	c-0.089,3.01-0.531,5.246-1.328,6.707c-0.753,1.55-2.324,2.988-4.714,4.317c-0.178-0.311-0.355-0.598-0.531-0.864
	c2.257-1.15,3.74-2.456,4.449-3.918c0.708-1.284,1.084-3.298,1.129-6.043c0.007-0.217,0.012-0.441,0.018-0.663h-4.866v-0.864h4.886
	c0.019-0.93,0.029-1.901,0.029-2.921h0.995c-0.031,0.95-0.046,1.929-0.056,2.921h4.904h0.465h0.465
	c-0.089,4.029-0.178,7.084-0.266,9.164C-49.406-113.268-50.18-112.338-51.641-112.338L-51.641-112.338z M-28.755-118.845
	c-2.701-1.682-4.76-4.161-6.176-7.438l0.929-0.399c1.505,3.32,3.475,5.535,5.91,6.641
	C-28.312-119.686-28.533-119.287-28.755-118.845L-28.755-118.845z M-32.108-114.436c-0.782-1.214-1.608-2.459-2.491-3.746
	l0.731-0.531c1.594,2.215,3.032,4.295,4.317,6.243l-0.864,0.73c-0.327-0.537-0.666-1.083-1.015-1.636
	c-3.162,0.171-6.148,0.361-8.945,0.574c-0.488,0.043-0.93,0.133-1.329,0.266l-0.398-1.328c0.398-0.221,0.752-0.508,1.062-0.863
	c1.505-1.77,2.899-3.829,4.183-6.176l0.864,0.664c-1.461,2.347-2.945,4.428-4.45,6.243
	C-38.153-114.082-35.371-114.228-32.108-114.436L-32.108-114.436z M-42.966-118.912c-0.177-0.309-0.376-0.641-0.597-0.995
	c2.214-1.682,4.007-3.874,5.379-6.575l0.863,0.664C-38.872-122.984-40.753-120.682-42.966-118.912L-42.966-118.912z
	 M-22.868-111.142l-0.399-0.399c0.752-0.531,1.151-1.461,1.196-2.789H-23.2v-1.859h1.86c0,0.266,0,0.863,0,1.793
	C-21.341-112.892-21.85-111.806-22.868-111.142L-22.868-111.142z M8.053-122.83v0.731H0.881v1.461h4.648h0.399h0.465v5.843H5.529
	v-0.066h-10.16v0.066h-0.864v-5.843h0.399h0.465h4.648v-1.461h-7.172v-0.731h4.383v-2.258h-3.719v-0.73h3.719v-1.661h0.929v1.661
	h4.715v-1.661h0.929v1.661h3.653v0.73H3.801v2.258H8.053L8.053-122.83z M0.881-119.775v1.593h4.648v-1.593H0.881L0.881-119.775z
	 M5.529-117.318H0.881v1.594h4.648V-117.318L5.529-117.318z M0.018-115.724v-1.594H-4.63v1.594H0.018L0.018-115.724z M-4.63-119.775
	v1.593h4.648v-1.593H-4.63L-4.63-119.775z M2.873-125.088h-4.715v2.258h4.715V-125.088L2.873-125.088z M-1.509-113.732
	c-1.55,0.707-3.145,1.371-4.782,1.991c-0.132-0.222-0.288-0.464-0.465-0.73c1.595-0.532,3.165-1.173,4.715-1.926L-1.509-113.732
	L-1.509-113.732z M7.853-112.47l-0.465,0.73c-1.594-0.663-3.231-1.284-4.914-1.859l0.465-0.663
	C4.71-113.643,6.348-113.047,7.853-112.47L7.853-112.47z M26.423-121.768c-0.266,0.311-0.487,0.621-0.663,0.93
	c-2.746-1.371-5.158-3.21-7.238-5.512c-1.905,2.302-4.317,4.207-7.239,5.712c-0.177-0.309-0.376-0.62-0.597-0.93
	c3.143-1.594,5.645-3.563,7.504-5.91h1.262l-0.332,0.399C21.199-124.733,23.635-122.962,26.423-121.768L26.423-121.768z
	 M15.798-114.728l-0.731,0.731c-0.576-0.752-1.24-1.505-1.992-2.258l0.664-0.664C14.537-116.166,15.223-115.436,15.798-114.728
	L15.798-114.728z M22.97-116.986l0.863,0.465c-0.62,0.841-1.306,1.704-2.059,2.59l-0.797-0.531
	C21.775-115.348,22.439-116.189,22.97-116.986L22.97-116.986z M17.99-117.517h-5.712v-0.863h5.712v-2.591h-4.117v-0.863h9.297v0.863
	h-4.183v2.591h5.777v0.863h-5.777v4.183h6.905v0.864H11.216v-0.864h6.774V-117.517L17.99-117.517z M34.966-125.154
	c-2.789,0.31-4.317,2.258-4.582,5.844c0.176,3.498,1.681,5.379,4.515,5.645c2.301-0.088,3.719-1.262,4.25-3.52l1.394,0.332
	c-0.753,2.657-2.59,4.007-5.511,4.051c-3.719-0.177-5.689-2.301-5.91-6.375c0.177-4.426,2.191-6.75,6.042-6.972
	c2.435,0.09,4.14,1.284,5.113,3.586l-1.328,0.333C38.153-124.135,36.826-125.11,34.966-125.154L34.966-125.154z M50.348-119.775
	c2.169,0.399,3.32,1.527,3.454,3.387c-0.133,2.215-1.55,3.342-4.25,3.387h-5.379v-12.95h5.047c2.524,0.133,3.873,1.196,4.051,3.187
	C53.137-121.213,52.164-120.217,50.348-119.775L50.348-119.775z M45.236-113.865h4.117c2.168,0,3.253-0.906,3.253-2.722
	c-0.132-1.595-1.306-2.457-3.519-2.591h-3.852L45.236-113.865L45.236-113.865z M48.888-124.955h-3.652v4.782h3.652
	c1.903-0.089,2.943-0.93,3.121-2.524C51.92-124.158,50.88-124.91,48.888-124.955L48.888-124.955z M62.078-113.002h-4.383v-12.949
	h4.516c3.984,0.133,6.042,2.302,6.176,6.507C68.475-115.061,66.372-112.913,62.078-113.002L62.078-113.002z M62.144-124.955h-3.32
	v11.156h3.254c3.453-0.043,5.157-1.903,5.113-5.577C67.058-122.918,65.376-124.777,62.144-124.955L62.144-124.955z M86.891-124.689
	H71.418v-0.863h7.322c-0.172-0.497-0.352-0.971-0.548-1.395l0.863-0.332c0.238,0.556,0.477,1.135,0.715,1.727h7.122v0.863H86.891z
	 M76.133-124.423c0.353,0.443,0.752,0.975,1.195,1.594l-0.731,0.598c-0.442-0.664-0.841-1.239-1.195-1.727L76.133-124.423
	L76.133-124.423z M73.476-122.099h6.937c0.587-0.782,1.138-1.539,1.63-2.258l0.797,0.465c-0.434,0.58-0.895,1.184-1.359,1.793h3.218
	v-0.066h0.93v8.434c0,1.15-0.598,1.726-1.793,1.726c-0.621,0-1.306,0-2.059,0c-0.045-0.354-0.112-0.686-0.199-0.996
	c0.84,0.044,1.594,0.067,2.258,0.067c0.575,0,0.863-0.288,0.863-0.864v-7.438H73.476v9.43h-0.929v-10.293h0.332H73.476
	L73.476-122.099z M78.124-120.107c-1.328,1.019-2.523,1.882-3.586,2.59c-0.177-0.266-0.376-0.508-0.597-0.731
	c1.106-0.708,2.258-1.549,3.454-2.524L78.124-120.107L78.124-120.107z M80.449-120.771c1.329,0.753,2.634,1.506,3.919,2.258
	l-0.531,0.797c-1.285-0.84-2.568-1.615-3.852-2.324L80.449-120.771L80.449-120.771z M76.864-118.314h4.515h0.399h0.464v4.183h-0.531
	v0.066h-5.246v-0.066H76v-4.183h0.531H76.864L76.864-118.314z M76.864-117.451v2.524h4.515v-2.524H76.864L76.864-117.451z
	 M103.336-111.806v-0.731H91.249v0.731h-0.995v-14.942h0.995v0.066h12.087v-0.066h0.995v14.941L103.336-111.806L103.336-111.806z
	 M91.249-125.818v12.418h12.087v-12.418H91.249L91.249-125.818z M102.737-118.513c-0.177,0.266-0.354,0.531-0.531,0.797
	c-1.496-0.539-2.636-1.495-3.431-2.855h-2.901c-0.389,0.488-0.837,0.953-1.351,1.394h4.23h0.332h0.531
	c-0.044,0.709-0.089,1.329-0.132,1.86c-0.09,0.753-0.532,1.129-1.329,1.129c-0.31,0-0.753,0-1.328,0
	c-0.044-0.266-0.111-0.553-0.199-0.863c0.399,0.089,0.841,0.132,1.329,0.132c0.441,0,0.663-0.199,0.663-0.597
	c0.026-0.285,0.052-0.599,0.078-0.93h-3.796v2.789c0,0.443,0.221,0.664,0.663,0.664h4.117c0.62,0,0.974-0.221,1.062-0.664
	c0.044-0.309,0.089-0.708,0.133-1.196c0.266,0.133,0.553,0.244,0.863,0.333c-0.089,0.488-0.177,0.907-0.266,1.262
	c-0.177,0.663-0.686,0.996-1.527,0.996h-4.582c-0.841,0-1.261-0.442-1.261-1.329v-2.856v-0.386
	c-0.591,0.465-1.255,0.904-1.992,1.316c-0.178-0.266-0.355-0.487-0.531-0.664c1.344-0.733,2.396-1.53,3.171-2.39h-2.773v-0.798
	h3.401c0.089-0.132,0.176-0.265,0.252-0.399c0.188-0.3,0.354-0.612,0.51-0.929H92.51v-0.73h3.96c0.236-0.591,0.422-1.21,0.556-1.859
	h0.863c-0.131,0.659-0.307,1.273-0.51,1.859h4.628v0.731h-4.91c-0.196,0.466-0.415,0.912-0.662,1.328h6.237v0.796h-2.979
	C100.397-119.613,101.404-118.917,102.737-118.513L102.737-118.513z M99.484-124.092c0.486-0.398,0.951-0.797,1.394-1.195
	l0.597,0.597c-0.488,0.398-0.996,0.797-1.527,1.196L99.484-124.092L99.484-124.092z M93.175-124.822l0.531-0.531
	c0.442,0.311,0.907,0.709,1.394,1.196l-0.597,0.531C94.06-124.025,93.617-124.423,93.175-124.822L93.175-124.822z M111.545-112.204
	c-1.328-0.09-2.081-0.798-2.257-2.126c0.132-1.416,0.885-2.191,2.257-2.324c1.372,0.133,2.126,0.908,2.258,2.324
	C113.671-113.002,112.918-112.294,111.545-112.204L111.545-112.204z M111.545-115.99c-0.974,0.132-1.505,0.687-1.594,1.66
	c0.089,0.842,0.62,1.305,1.594,1.395c0.974-0.09,1.505-0.553,1.595-1.395C113.05-115.303,112.519-115.857,111.545-115.99
	L111.545-115.99z"/>
<g opacity="0.8">
	<path fill="#3A7EBD" d="M276.189-85.956c-0.295-0.291-0.77-0.288-1.061,0.006c-0.291,0.295-0.289,0.77,0.006,1.061
		c2.01,1.986,3.116,4.636,3.116,7.46c0,5.783-4.704,10.488-10.487,10.488s-10.487-4.705-10.487-10.488
		c0-2.975,1.271-5.822,3.487-7.81c0.309-0.276,0.334-0.75,0.058-1.059c-0.278-0.31-0.752-0.334-1.06-0.057
		c-2.532,2.271-3.985,5.525-3.985,8.926c0,6.61,5.378,11.988,11.987,11.988s11.987-5.378,11.987-11.988
		C279.751-80.658,278.486-83.686,276.189-85.956z"/>
	<path fill="#3A7EBD" d="M263.279-87.824c0.005,0.019,0.002,0.038,0.008,0.057c0.01,0.029,0.029,0.051,0.043,0.078
		c0.017,0.045,0.024,0.093,0.051,0.136l5.353,8.543c-0.148-0.016-0.297-0.028-0.448-0.028c-0.745,0-1.474,0.21-2.107,0.607
		c-0.899,0.563-1.525,1.443-1.763,2.478c-0.237,1.034-0.058,2.099,0.506,2.999c0.731,1.167,1.991,1.864,3.369,1.864
		c0.745,0,1.474-0.21,2.107-0.607c0.898-0.563,1.524-1.443,1.763-2.478c0.237-1.034,0.058-2.099-0.506-2.999l-6.521-10.408
		c1.996-0.513,4.148-0.431,6.094,0.25c0.392,0.136,0.819-0.07,0.956-0.46s-0.069-0.819-0.46-0.956
		c-2.561-0.896-5.428-0.888-7.982,0.022c-0.365,0.13-0.556,0.515-0.465,0.884C263.277-87.835,263.278-87.83,263.279-87.824z
		 M270.697-74.511c-0.147,0.644-0.537,1.191-1.097,1.542c-1.126,0.708-2.708,0.336-3.408-0.782c-0.352-0.56-0.463-1.223-0.315-1.866
		c0.147-0.644,0.537-1.191,1.098-1.542c0.395-0.248,0.848-0.378,1.311-0.378c0.858,0,1.643,0.434,2.098,1.161
		C270.733-75.818,270.846-75.155,270.697-74.511z"/>
</g>
<g opacity="0.6">
	<path fill="#646464" d="M309.08-85.956c-0.295-0.291-0.77-0.288-1.061,0.006c-0.291,0.295-0.289,0.77,0.006,1.061
		c2.01,1.986,3.116,4.636,3.116,7.46c0,5.783-4.704,10.488-10.487,10.488s-10.487-4.705-10.487-10.488
		c0-2.975,1.271-5.822,3.487-7.81c0.309-0.276,0.334-0.75,0.058-1.059c-0.278-0.31-0.752-0.334-1.06-0.057
		c-2.532,2.271-3.985,5.525-3.985,8.926c0,6.61,5.378,11.988,11.987,11.988s11.987-5.378,11.987-11.988
		C312.642-80.658,311.377-83.686,309.08-85.956z"/>
	<path fill="#646464" d="M296.169-87.824c0.005,0.019,0.002,0.038,0.008,0.057c0.01,0.029,0.029,0.051,0.043,0.078
		c0.017,0.045,0.024,0.093,0.051,0.136l5.353,8.543c-0.148-0.016-0.297-0.028-0.448-0.028c-0.745,0-1.474,0.21-2.107,0.607
		c-0.899,0.563-1.525,1.443-1.763,2.478c-0.237,1.034-0.058,2.099,0.506,2.999c0.731,1.167,1.991,1.864,3.369,1.864
		c0.745,0,1.474-0.21,2.107-0.607c0.898-0.563,1.524-1.443,1.763-2.478c0.237-1.034,0.058-2.099-0.506-2.999l-6.521-10.408
		c1.996-0.513,4.148-0.431,6.094,0.25c0.392,0.136,0.819-0.07,0.956-0.46s-0.069-0.819-0.46-0.956
		c-2.561-0.896-5.428-0.888-7.982,0.022c-0.365,0.13-0.556,0.515-0.465,0.884C296.168-87.835,296.168-87.83,296.169-87.824z
		 M303.588-74.511c-0.147,0.644-0.537,1.191-1.097,1.542c-1.126,0.708-2.708,0.336-3.408-0.782c-0.352-0.56-0.463-1.223-0.315-1.866
		c0.147-0.644,0.537-1.191,1.098-1.542c0.395-0.248,0.848-0.378,1.311-0.378c0.858,0,1.643,0.434,2.098,1.161
		C303.624-75.818,303.736-75.155,303.588-74.511z"/>
</g>
<path opacity="0.6" fill="#646464" d="M109.663-25.603l-3.399,1.701c-0.044,0.022-0.092,0.033-0.14,0.033
	c-0.053,0-0.105-0.013-0.152-0.039l-3.582-1.983l-2.87,1.815c-0.097,0.061-0.219,0.065-0.319,0.01
	c-0.1-0.056-0.162-0.161-0.162-0.276v-5.875c0-0.113,0.06-0.217,0.157-0.273l1.434-0.824c0.151-0.087,0.343-0.035,0.429,0.116
	c0.086,0.15,0.035,0.343-0.116,0.429l-1.277,0.733v5.122l2.546-1.609c0.097-0.061,0.22-0.065,0.32-0.009l3.6,1.993l3.078-1.54
	v-5.027l-1.136,0.728c-0.146,0.094-0.341,0.051-0.434-0.096c-0.093-0.146-0.051-0.341,0.095-0.434l1.62-1.037
	c0.097-0.062,0.22-0.066,0.32-0.011c0.101,0.055,0.163,0.161,0.163,0.276v5.795C109.837-25.765,109.77-25.656,109.663-25.603
	L109.663-25.603z M106.821-31.716c-0.023,0.129-0.056,0.257-0.098,0.38c-0.38,1.277-1.134,2.409-2.176,3.262
	c-0.058,0.048-0.128,0.071-0.199,0.071c-0.071,0-0.141-0.023-0.199-0.071c-1.037-0.849-1.788-1.974-2.175-3.253
	c-0.044-0.124-0.081-0.269-0.105-0.414c-0.025-0.147-0.036-0.281-0.036-0.411c0-1.388,1.128-2.517,2.514-2.517
	c1.386,0,2.514,1.129,2.514,2.517C106.861-32.012,106.847-31.869,106.821-31.716L106.821-31.716z M104.346-34.039
	c-1.039,0-1.885,0.847-1.885,1.887c0,0.095,0.009,0.196,0.028,0.309c0.018,0.109,0.046,0.217,0.082,0.32
	c0.329,1.089,0.939,2.045,1.777,2.792c0.842-0.751,1.454-1.713,1.777-2.797c0.035-0.104,0.06-0.2,0.076-0.297
	c0.021-0.117,0.031-0.225,0.031-0.327C106.232-33.193,105.386-34.039,104.346-34.039L104.346-34.039z"/>
<path opacity="0.6" fill-rule="evenodd" clip-rule="evenodd" fill="#646464" d="M115.357-32.988h44.16c0.795,0,1.44,0.645,1.44,1.44
	v6c0,0.795-0.644,1.44-1.44,1.44h-44.16c-0.796,0-1.44-0.645-1.44-1.44v-6C113.917-32.343,114.561-32.988,115.357-32.988
	L115.357-32.988z"/>
<path fill="#FFFFFF" d="M118.794-29.709h1.643h0.157h0.157v1.71h-0.157h-0.157h-3.397h-0.135h-0.157v-1.71h0.157h0.135h1.417v-1.845
	h0.337v0.652h2.453v0.293h-2.453V-29.709L118.794-29.709z M117.039-28.314h3.397v-1.08h-3.397V-28.314L117.039-28.314z
	 M117.107-27.504c-0.24,0.42-0.488,0.802-0.743,1.148l-0.293-0.157c0.285-0.345,0.533-0.712,0.743-1.103L117.107-27.504
	L117.107-27.504z M118.389-26.514l-0.315,0.112c-0.12-0.39-0.255-0.757-0.405-1.103l0.293-0.09
	C118.111-27.249,118.254-26.889,118.389-26.514L118.389-26.514z M119.716-26.559l-0.315,0.09c-0.135-0.39-0.278-0.743-0.428-1.058
	l0.293-0.09C119.431-27.271,119.581-26.919,119.716-26.559L119.716-26.559z M121.247-26.514l-0.315,0.135
	c-0.21-0.42-0.427-0.802-0.652-1.148l0.292-0.112C120.796-27.279,121.021-26.904,121.247-26.514L121.247-26.514z M127.448-29.169
	v0.315h-2.453v2.003h1.62v-1.417h0.337v1.957h-0.337v-0.225h-3.555h-0.135h-0.203v-1.732h0.337v1.417h1.597v-2.003h-2.452v-0.315
	h2.452v-1.08h-2.07v-0.315h2.07v-0.967h0.337v0.967h2.093v0.315h-2.093v1.08H127.448L127.448-29.169z M128.34-26.514v-0.27h5.22
	v0.27H128.34L128.34-26.514z M132.48-29.439h0.18h0.112v2.025h-0.157h-0.135h-3.06h-0.157h-0.135v-2.025h0.135h0.157H132.48
	L132.48-29.439z M129.42-29.169v0.607h3.06v-0.607H129.42L129.42-29.169z M132.48-27.684v-0.607h-3.06v0.607H132.48L132.48-27.684z
	 M133.38-29.416c-1.048-0.262-1.804-0.666-2.272-1.211v1.143h-0.293v-1.144c-0.538,0.53-1.308,0.978-2.317,1.346
	c-0.06-0.075-0.12-0.157-0.18-0.247c0.89-0.301,1.608-0.685,2.16-1.148h-1.868v-0.248h2.205v-0.63h0.293v0.63h2.205v0.248h-1.885
	c0.505,0.478,1.214,0.809,2.133,0.99C133.47-29.581,133.41-29.491,133.38-29.416L133.38-29.416z M139.717-29.686v0.27h-3.335
	c-0.107,0.171-0.223,0.335-0.347,0.495h2.76h0.113h0.157v2.633h-0.27v-0.225h-2.88v0.225h-0.27v-2.181
	c-0.319,0.335-0.675,0.645-1.08,0.921c-0.045-0.09-0.105-0.188-0.18-0.293c0.674-0.436,1.216-0.963,1.634-1.575h-1.499v-0.27h1.673
	c0.1-0.167,0.193-0.338,0.275-0.517h-1.589v-0.27h1.699c0.073-0.183,0.137-0.371,0.193-0.566c-0.638,0.018-1.276,0.035-1.914,0.048
	c-0.015-0.09-0.038-0.18-0.067-0.27c1.77-0.03,3.263-0.082,4.477-0.157l0.045,0.293c-0.735,0.03-1.47,0.056-2.205,0.078
	c-0.057,0.197-0.122,0.388-0.194,0.575h2.421v0.27h-2.532c-0.078,0.177-0.164,0.35-0.257,0.517H139.717L139.717-29.686z
	 M135.914-28.629v0.427h2.88v-0.427H135.914L135.914-28.629z M138.794-27.931h-2.88v0.427h2.88V-27.931L138.794-27.931z
	 M138.794-26.784v-0.45h-2.88v0.45H138.794L138.794-26.784z M145.852-30.339h-1.463v0.945h1.26v0.292h-2.903v-0.292h1.305v-0.945
	h-1.508v-0.27h1.508v-0.877h0.337v0.877h1.463V-30.339L145.852-30.339z M140.564-27.009c0.645-0.12,1.268-0.255,1.868-0.405
	c0,0.075,0,0.172,0,0.292c-0.585,0.12-1.185,0.263-1.8,0.428L140.564-27.009L140.564-27.009z M142.274-28.426v0.27
	c-0.735,0.12-1.238,0.203-1.508,0.248l-0.068-0.338c0.247-0.267,0.534-0.677,0.86-1.224c-0.416,0.03-0.723,0.07-0.904,0.122
	l-0.068-0.36c0.3-0.36,0.66-0.96,1.08-1.8l0.292,0.135c-0.195,0.405-0.54,0.968-1.035,1.687c0.376-0.043,0.645-0.071,0.811-0.088
	c0.115-0.203,0.234-0.419,0.359-0.654l0.292,0.157c-0.465,0.795-0.9,1.463-1.305,2.003
	C141.456-28.314,141.854-28.366,142.274-28.426L142.274-28.426z M143.196-28.404h2.025h0.09h0.247v2.115h-0.337v-0.315h-2.025v0.315
	h-0.337v-2.115h0.203H143.196L143.196-28.404z M145.221-26.874v-1.26h-2.025v1.26H145.221L145.221-26.874z M151.716-27.369
	c-0.031,0.644-0.36,0.967-0.99,0.967c-0.375,0-0.743-0.008-1.103-0.023c-0.015-0.135-0.038-0.247-0.067-0.337
	c0.405,0.045,0.78,0.068,1.125,0.068c0.435,0,0.66-0.24,0.675-0.72c0.041-0.711,0.077-1.711,0.106-2.992h-2.222
	c-0.2,0.347-0.409,0.648-0.629,0.9c-0.09-0.104-0.165-0.195-0.225-0.27c0.435-0.495,0.78-1.087,1.035-1.777l0.337,0.09
	c-0.116,0.277-0.237,0.527-0.361,0.765h2.071h0.18h0.18C151.798-29.304,151.761-28.193,151.716-27.369L151.716-27.369z
	 M147.801-29.379l0.135-0.105c0.255,0.3,0.487,0.578,0.697,0.833l-0.225,0.18c-0.215-0.283-0.417-0.537-0.608-0.772v2.932h-0.27
	v-3.253c-0.184,0.715-0.423,1.344-0.72,1.88c-0.031-0.15-0.068-0.3-0.113-0.45c0.352-0.62,0.608-1.28,0.775-1.98h-0.662v-0.27h0.72
	v-1.08h0.27v1.08h0.765v0.27h-0.765V-29.379L147.801-29.379z M148.768-28.246c0.42-0.525,0.78-1.072,1.08-1.642l0.315,0.112
	c-0.315,0.555-0.705,1.133-1.17,1.732c0.408-0.026,0.872-0.046,1.386-0.061c-0.123-0.21-0.247-0.416-0.373-0.614l0.292-0.135
	c0.255,0.405,0.495,0.795,0.72,1.17l-0.315,0.157c-0.057-0.107-0.116-0.208-0.175-0.312c-0.659,0.03-1.181,0.058-1.558,0.087
	c-0.135,0.015-0.263,0.038-0.383,0.067l-0.135-0.292C148.558-28.036,148.663-28.126,148.768-28.246L148.768-28.246z M157.535-26.311
	v-0.225h-4.073v0.225h-0.337v-5.017h0.18h0.157h4.073h0.18h0.157v5.017H157.535L157.535-26.311z M153.463-31.014v4.185h4.073v-4.185
	H153.463L153.463-31.014z M155.805-29.349c0.412,0.199,0.903,0.336,1.483,0.405c-0.045,0.105-0.083,0.211-0.112,0.315
	c-0.666-0.086-1.226-0.266-1.687-0.536c-0.472,0.254-1.011,0.463-1.62,0.626c-0.045-0.09-0.105-0.18-0.18-0.27
	c0.565-0.127,1.072-0.306,1.527-0.533c-0.247-0.182-0.455-0.398-0.631-0.644c-0.175,0.256-0.354,0.483-0.536,0.681
	c-0.045-0.06-0.112-0.142-0.203-0.247c0.405-0.42,0.712-0.87,0.923-1.35l0.315,0.09c-0.068,0.126-0.136,0.243-0.205,0.36h1.667
	h0.135h0.135v0.27C156.533-29.868,156.194-29.592,155.805-29.349L155.805-29.349z M155.52-29.506
	c0.335-0.195,0.637-0.419,0.905-0.675h-1.63C154.984-29.915,155.225-29.691,155.52-29.506L155.52-29.506z M154.813-28.584
	c0.48,0.075,1.005,0.165,1.575,0.27l-0.09,0.292c-0.585-0.105-1.11-0.195-1.575-0.27L154.813-28.584L154.813-28.584z M156.77-27.436
	l-0.112,0.292c-0.78-0.15-1.613-0.292-2.498-0.427l0.068-0.293C155.113-27.744,155.96-27.601,156.77-27.436L156.77-27.436z"/>
</svg>
